<?xml version="1.0" encoding="UTF-8"?>
<svg version="1.1" xmlns="http://www.w3.org/2000/svg" width="1024" height="1024">
<path d="M0 0 C337.92 0 675.84 0 1024 0 C1024 337.92 1024 675.84 1024 1024 C686.08 1024 348.16 1024 0 1024 C0 686.08 0 348.16 0 0 Z " fill="#FDFAF7" transform="translate(0,0)"/>
<path d="M0 0 C1.134375 0.51175781 2.26875 1.02351563 3.4375 1.55078125 C15.54421603 7.53275532 25.96961527 16.15053 30.7734375 29.08203125 C32.52121121 31.81501498 34.55146985 32.45811823 37.5 33.75 C46.1302306 37.84832721 52.74328408 43.87253986 59.8203125 50.16796875 C62.38047691 52.31979153 65.05038127 54.27612293 67.75 56.25 C74.26536965 61.08530577 80.14706372 66.40008946 86 72 C86.928125 72.87527344 87.85625 73.75054687 88.8125 74.65234375 C125.09821539 109.75258832 147.20288246 162.07293142 148.203125 212.38671875 C148.93053669 274.24684458 128.56980754 328.51452243 86.40234375 373.7890625 C80.64560554 379.68264869 74.48999991 384.93332421 68 390 C66.61361328 391.09441406 66.61361328 391.09441406 65.19921875 392.2109375 C21.52571005 425.89686437 -34.71306355 440.99100672 -89.49267578 434.23046875 C-93.3669077 433.63681671 -97.18026412 432.87607188 -101 432 C-102.35641602 431.69400879 -102.35641602 431.69400879 -103.74023438 431.38183594 C-136.34227567 423.84055568 -167.08999659 410.4239031 -193 389 C-193.5667041 388.53480957 -194.1334082 388.06961914 -194.71728516 387.59033203 C-238.2977998 351.62769616 -267.54704304 299.60669712 -273 243 C-273.14982873 240.00744198 -273.18636364 237.01942001 -273.203125 234.0234375 C-273.21013931 233.18392044 -273.21715363 232.34440338 -273.22438049 231.47944641 C-273.24182183 228.77790933 -273.24823466 226.07659136 -273.25 223.375 C-273.25067474 222.4530484 -273.25134949 221.5310968 -273.25204468 220.58120728 C-273.23605841 206.85079566 -272.84680815 193.48030904 -270 180 C-269.83371094 179.1848291 -269.66742188 178.3696582 -269.49609375 177.52978516 C-265.57386093 158.85923062 -259.11612187 140.68544962 -250.02978516 123.90332031 C-248.97431718 121.95253123 -247.946507 119.98853481 -246.91796875 118.0234375 C-241.89761991 108.60785495 -235.98639573 100.13105618 -229.38427734 91.75878906 C-228.18440825 90.2342993 -227.00618513 88.69282008 -225.83203125 87.1484375 C-215.70769002 74.18458084 -203.64178388 62.22594633 -190 53 C-190.26941406 52.46246094 -190.53882813 51.92492187 -190.81640625 51.37109375 C-191.20699219 50.58863281 -191.59757812 49.80617187 -192 49 C-192.46277344 48.08347656 -192.92554688 47.16695312 -193.40234375 46.22265625 C-197.92910681 36.90420507 -202.1491827 26.5724808 -201 16 C-200.01 14.515 -200.01 14.515 -199 13 C-194.20058456 13.47053093 -189.78426941 14.3105797 -185.125 15.5625 C-162.45074913 20.82523028 -143.50350278 12.33026318 -122.89282227 3.81420898 C-83.198993 -12.54190101 -40.313097 -18.22187978 0 0 Z " fill="#0D2337" transform="translate(563,120)"/>
<path d="M0 0 C0.00410889 0.71728271 0.00821777 1.43456543 0.01245117 2.17358398 C0.24681813 25.76964939 3.74865801 47.56712499 11 70 C10.32453125 70.42410156 9.6490625 70.84820312 8.953125 71.28515625 C2.72477344 75.38038741 -1.23085605 78.52407824 -3.57421875 85.77734375 C-6.56162501 101.37215258 -2.36820598 116.78962721 6.18359375 129.80078125 C12.90865745 138.80631638 23.36052105 142.34091101 34 144 C34.17015625 144.52730713 34.3403125 145.05461426 34.515625 145.59790039 C39.57594994 161.10019239 45.16065516 175.5428425 56 188 C56.67675781 188.80824219 57.35351562 189.61648438 58.05078125 190.44921875 C62.07914925 195.12155321 66.00865597 198.76378025 71.0625 202.3125 C74.45278589 204.95465017 75.80769281 206.15031619 76.765625 210.3828125 C76.80979326 213.73223919 76.70016578 216.72472786 76 220 C75.34 220.66 74.68 221.32 74 222 C73.50371094 221.66226563 73.00742187 221.32453125 72.49609375 220.9765625 C71.81675781 220.53054688 71.13742187 220.08453125 70.4375 219.625 C69.77621094 219.18414062 69.11492187 218.74328125 68.43359375 218.2890625 C56.98971387 212.22729627 43.16309285 214.28049292 31.28125 217.875 C23.27644888 220.61950324 17.687159 223.68263667 13 231 C12.06871186 233.34036759 11.17511748 235.69596051 10.3125 238.0625 C7.58192177 244.88894556 4.6286935 247.17694845 -1.84765625 250.37109375 C-10.94075642 255.0697589 -18.50546566 263.12323639 -26 270 C-29.33516097 268.61242702 -30.83024005 267.22531675 -32.734375 264.17578125 C-33.22188232 263.40266602 -33.70938965 262.62955078 -34.21166992 261.83300781 C-34.71931885 261.00124023 -35.22696777 260.16947266 -35.75 259.3125 C-36.28149658 258.45108398 -36.81299316 257.58966797 -37.3605957 256.70214844 C-38.92466156 254.14487826 -40.46743658 251.57625198 -42 249 C-42.39300293 248.34241699 -42.78600586 247.68483398 -43.19091797 247.00732422 C-69.23440734 202.76593158 -73.95741678 148.04621347 -61.73730469 98.8359375 C-54.40474527 70.63229174 -41.08860941 44.09438226 -22 22 C-21.31808594 21.20851562 -20.63617188 20.41703125 -19.93359375 19.6015625 C-15.61363684 14.70200494 -11.10311165 10.00686398 -6.5 5.375 C-5.97116211 4.84148926 -5.44232422 4.30797852 -4.89746094 3.75830078 C-1.12309376 0 -1.12309376 0 0 0 Z " fill="#FCFAF7" transform="translate(370,192)"/>
<path d="M0 0 C16.23960827 13.6000197 29.0312425 28.92560441 40 47 C40.37511719 47.61182129 40.75023437 48.22364258 41.13671875 48.85400391 C54.33096185 70.5760961 62.05585032 94.97309337 66 120 C66.17128418 121.03535889 66.34256836 122.07071777 66.51904297 123.13745117 C67.0660724 127.53062507 67.19779552 131.82406243 67.23828125 136.24609375 C67.24812042 137.12585876 67.25795959 138.00562378 67.26809692 138.91204834 C67.43378025 157.57575187 67.57753176 175.78248197 63 194 C62.76925781 194.95712891 62.53851562 195.91425781 62.30078125 196.90039062 C55.7851641 223.29036378 44.20225404 248.16451194 28 270 C27.113125 269.236875 26.22625 268.47375 25.3125 267.6875 C24.67441406 267.14351563 24.03632812 266.59953125 23.37890625 266.0390625 C21.586199 264.50245628 19.8041342 262.95342099 18.02734375 261.3984375 C7.33557716 251.88807834 7.33557716 251.88807834 -5.1640625 245.19921875 C-7.97998867 243.35987974 -8.30782103 241.02421189 -9.3125 237.875 C-12.52158063 229.10802371 -16.32546946 224.1784342 -24.5625 219.6875 C-36.12813294 214.40816258 -50.4742425 211.46311419 -62.9921875 214.796875 C-67.23567242 216.43382764 -71.2103779 218.47358527 -75 221 C-75.144375 220.27683594 -75.28875 219.55367187 -75.4375 218.80859375 C-75.78735021 217.06177221 -76.17644899 215.32177418 -76.625 213.59765625 C-77.11820396 210.26339199 -77.02324361 208.2462905 -76 205 C-72.28824158 200.27285038 -67.40326695 196.54471165 -62.85888672 192.65185547 C-49.00763937 180.34327396 -41.70029838 163.1644335 -36 146 C-35.67 145.01 -35.34 144.02 -35 143 C-34.33355469 142.92523438 -33.66710937 142.85046875 -32.98046875 142.7734375 C-23.25297545 141.38573915 -14.397295 137.56900109 -7.62890625 130.24609375 C-0.11377448 119.88350198 3.35569426 108.73671806 3.375 96.0625 C3.39949219 95.22009766 3.42398438 94.37769531 3.44921875 93.50976562 C3.48211005 86.38879963 1.85656607 80.3266339 -2.8515625 74.84375 C-3.72941406 74.17859375 -3.72941406 74.17859375 -4.625 73.5 C-5.21539063 73.0359375 -5.80578125 72.571875 -6.4140625 72.09375 C-8.01960436 70.93201289 -8.01960436 70.93201289 -10 70 C-8.88220219 64.74301475 -7.63578769 59.54878807 -6.19799805 54.37036133 C-1.13907847 35.99849551 0.47363384 19.07651382 0 0 Z " fill="#FCF9F7" transform="translate(631,193)"/>
<path d="M0 0 C6.31779538 5.47480509 11.64078467 10.25649402 13.4765625 18.55859375 C14.41639133 21.67735533 14.93966098 22.66272828 17.80859375 24.30078125 C19.86556158 25.08259078 21.93287123 25.83753591 24.0078125 26.5703125 C32.75565647 30.07145647 42.15525969 36.3388359 46.4140625 44.93359375 C55.38459984 66.08336063 48.17463359 94.37040388 40.4140625 114.93359375 C38.91835873 118.05985984 37.30819399 121.03194552 35.4140625 123.93359375 C33.26657772 121.78610897 32.85586145 120.68653619 31.96875 117.84765625 C31.70046387 117.00936279 31.43217773 116.17106934 31.15576172 115.30737305 C30.86975098 114.40027588 30.58374023 113.49317871 30.2890625 112.55859375 C27.88713176 105.12206789 25.26356311 97.84730161 22.2890625 90.62109375 C16.57332897 76.60124128 12.69312523 62.9049977 10.4140625 47.93359375 C6.30817137 48.44683014 4.64105883 50.51912276 1.9140625 53.49609375 C-6.21139525 61.83632131 -15.2858421 67.85543156 -26.5859375 70.93359375 C-27.2459375 70.93359375 -27.9059375 70.93359375 -28.5859375 70.93359375 C-26.67304676 63.95322052 -24.25543036 57.21622228 -21.65576172 50.46875 C-20.44594396 47.3125694 -19.35967161 44.22264085 -18.5859375 40.93359375 C-19.17906738 41.26568848 -19.77219727 41.5977832 -20.38330078 41.93994141 C-41.11774201 53.50901322 -61.16650436 62.54615564 -84.5859375 66.93359375 C-85.48320557 67.10487793 -86.38047363 67.27616211 -87.30493164 67.45263672 C-112.94359086 71.21096388 -140.33578311 67.56337036 -164.5859375 58.93359375 C-164.225 59.57425781 -163.8640625 60.21492188 -163.4921875 60.875 C-163.028125 61.73996094 -162.5640625 62.60492188 -162.0859375 63.49609375 C-161.621875 64.34300781 -161.1578125 65.18992187 -160.6796875 66.0625 C-158.24634837 72.45001522 -159.96201369 78.42270869 -161.7109375 84.74609375 C-161.93177002 85.56996582 -162.15260254 86.39383789 -162.38012695 87.24267578 C-164.1696785 93.77469452 -166.32546319 100.15043666 -168.55175781 106.54370117 C-170.7192996 112.93852061 -171.89632233 119.20390093 -172.5859375 125.93359375 C-173.2459375 125.93359375 -173.9059375 125.93359375 -174.5859375 125.93359375 C-176.0518713 121.62364027 -177.5072934 117.31020623 -178.9609375 112.99609375 C-179.3734375 111.78373047 -179.7859375 110.57136719 -180.2109375 109.32226562 C-183.25314855 100.26923434 -185.59261441 91.47827822 -186.7109375 81.99609375 C-186.79512939 81.28243652 -186.87932129 80.5687793 -186.96606445 79.83349609 C-187.56584734 74.23916855 -187.7677347 68.68326847 -187.7734375 63.05859375 C-187.774646 61.90822632 -187.774646 61.90822632 -187.77587891 60.73461914 C-187.74357033 57.54648015 -187.60076647 54.97808066 -186.5859375 51.93359375 C-184.23115809 50.73728431 -181.96846634 49.71406704 -179.5234375 48.74609375 C-178.86021484 48.47345703 -178.19699219 48.20082031 -177.51367188 47.91992188 C-175.87508933 47.24798515 -174.23100347 46.58949747 -172.5859375 45.93359375 C-172.14353701 42.00849425 -172.14353701 42.00849425 -174.2734375 40.03125 C-175.0365625 39.35964844 -175.7996875 38.68804687 -176.5859375 37.99609375 C-183.21044664 31.68554239 -188.63577977 23.65064273 -191.5859375 14.93359375 C-191.5859375 13.94359375 -191.5859375 12.95359375 -191.5859375 11.93359375 C-190.50662964 11.91171997 -190.50662964 11.91171997 -189.40551758 11.8894043 C-186.06934903 11.81383112 -182.73406539 11.71754126 -179.3984375 11.62109375 C-178.26728516 11.59853516 -177.13613281 11.57597656 -175.97070312 11.55273438 C-163.08325696 11.1488543 -152.06670227 8.05260664 -140.21331787 3.09228516 C-136.94955259 1.7298629 -133.66915974 0.40842132 -130.390625 -0.91796875 C-129.73140045 -1.18538879 -129.0721759 -1.45280884 -128.39297485 -1.72833252 C-89.19760705 -17.59679955 -36.6431307 -29.28129327 0 0 Z " fill="#583B35" transform="translate(569.5859375,139.06640625)"/>
<path d="M0 0 C0.14695312 0.95519531 0.29390625 1.91039062 0.4453125 2.89453125 C2.42179002 14.28767467 5.90225577 25.52300052 15.48046875 32.9140625 C16.37378906 33.47867188 17.26710938 34.04328125 18.1875 34.625 C19.06792969 35.19476563 19.94835937 35.76453125 20.85546875 36.3515625 C27.87231053 40.02995658 34.40971321 41.56257863 42.3125 41.5 C43.1384668 41.49572998 43.96443359 41.49145996 44.81542969 41.48706055 C52.00029761 41.28857191 57.74260928 39.60425706 64 36 C65.00740234 35.45859375 65.00740234 35.45859375 66.03515625 34.90625 C74.32473384 29.80497148 79.29371395 20.07081808 82 11 C82.811521 7.35047415 83.4654331 3.69976564 84 0 C84.66 0 85.32 0 86 0 C85.16925312 32.06682975 76.95236011 68.52599534 54 92 C53.13375 92.886875 52.2675 93.77375 51.375 94.6875 C50.59125 95.450625 49.8075 96.21375 49 97 C48.56171875 97.48339844 48.1234375 97.96679688 47.671875 98.46484375 C37.74180384 109.1221171 25.40651994 116.59737256 12 122 C11.17628906 122.35964844 10.35257813 122.71929687 9.50390625 123.08984375 C-1.34218024 127.16887454 -15.95590969 126.40224363 -26.69921875 122.51171875 C-54.03172681 109.99375352 -77.15001628 89.40903005 -88.20214844 61.18408203 C-93.31801382 47.17963536 -96.12520238 32.33092526 -98.6875 17.6875 C-98.81914551 16.95853516 -98.95079102 16.22957031 -99.08642578 15.47851562 C-99.96495125 10.26175333 -100.10966508 5.29003456 -100 0 C-98.31053952 3.23388807 -97.41145712 6.17855945 -96.625 9.75 C-93.72138359 21.59445507 -87.81578504 30.29410583 -77.28515625 36.74609375 C-67.2312329 42.26286195 -55.35619416 42.72951273 -44.26171875 40.12109375 C-33.47543702 36.28061976 -25.33742177 30.21920997 -20 20 C-17.01774304 13.385507 -15.47391952 7.22727274 -15 0 C-9.99282782 -1.66905739 -5.02499794 -1.41644237 0 0 Z " fill="#F9BF81" transform="translate(507,284)"/>
<path d="M0 0 C4.36537364 3.49599838 5.24846991 7.16073491 6.5 12.375 C6.70939209 13.22022217 6.91878418 14.06544434 7.13452148 14.9362793 C7.78247043 17.61888146 8.3978451 20.30677005 9 23 C9.27094482 24.20245361 9.27094482 24.20245361 9.54736328 25.42919922 C12.3881398 38.45187464 13.85043724 51.63628678 15.25 64.875 C15.33903595 65.71245758 15.4280719 66.54991516 15.51980591 67.41275024 C15.77443682 69.8344907 16.02171643 72.25684557 16.265625 74.6796875 C16.34040573 75.39979507 16.41518646 76.11990265 16.49223328 76.86183167 C16.95427883 81.59606242 17.06274046 86.24307177 17 91 C-17.8800396 109.66983987 -63.36473008 114.44341455 -102 106 C-102.79937988 105.83371094 -103.59875977 105.66742187 -104.42236328 105.49609375 C-119.02614158 102.40049403 -135.42410289 98.31506954 -148 90 C-147.70947079 84.66343706 -147.36734231 79.3317112 -147 74 C-146.94618164 73.19691406 -146.89236328 72.39382813 -146.83691406 71.56640625 C-143.26630806 20.48858479 -143.26630806 20.48858479 -133 1 C-132.67 1 -132.34 1 -132 1 C-131.79375 2.27875 -131.5875 3.5575 -131.375 4.875 C-129.16632019 14.69821929 -122.90643226 22.89381593 -114.71875 28.5859375 C-93.7706581 41.64534922 -68.96897106 45.80681305 -44.66625977 40.82177734 C-28.46484463 36.89974508 -13.03115988 29.16347179 -3.65625 14.96484375 C-0.97033318 10.13978603 -0.25343796 5.4742599 0 0 Z " fill="#F6B333" transform="translate(566,433)"/>
<path d="M0 0 C12.66226926 9.34214441 16.937415 22.34825491 19.75390625 37.32421875 C22.61388362 58.47649581 21.94713229 85.49118211 9.875 103.875 C3.99002818 111.50647959 -3.32882094 116.32650603 -12.8125 118.3125 C-24.06537748 119.54634492 -35.12066274 119.22049015 -44.5234375 112.32421875 C-56.88634474 101.8284368 -62.22984203 87.27825001 -63.8125 71.3125 C-65.02363498 49.2290949 -65.01129691 24.52530279 -50.8125 6.3125 C-38.01761669 -7.58239591 -15.94555602 -9.91867637 0 0 Z " fill="#0C2436" transform="translate(796.8125,596.6875)"/>
<path d="M0 0 C1.12067871 0.01047363 2.24135742 0.02094727 3.39599609 0.03173828 C5.21357422 0.04140625 5.21357422 0.04140625 7.06787109 0.05126953 C8.33888672 0.06802734 9.60990234 0.08478516 10.91943359 0.10205078 C12.19818359 0.11107422 13.47693359 0.12009766 14.79443359 0.12939453 C17.96128526 0.15302775 21.12776783 0.18597449 24.29443359 0.22705078 C26.46508756 5.00934274 28.02831076 9.58232651 29.27148438 14.70703125 C29.44588043 15.41845779 29.62027649 16.12988434 29.79995728 16.86286926 C30.36875869 19.18868144 30.92916311 21.51643303 31.48974609 23.84423828 C31.88599677 25.46866994 32.28288786 27.09294551 32.6803894 28.71707153 C33.72077469 32.97329962 34.75453098 37.23110596 35.78625488 41.48944092 C37.44322553 48.32640146 39.10734261 55.16160749 40.77709579 61.9954567 C41.35919632 64.38396613 41.93663284 66.77357037 42.51370239 69.16329956 C42.86768326 70.61672166 43.22183049 72.07010325 43.57617188 73.5234375 C43.88467072 74.79694061 44.19316956 76.07044373 44.51101685 77.38253784 C45.00930821 80.10658146 45.00930821 80.10658146 46.29443359 81.22705078 C46.47125168 80.49028107 46.64806976 79.75351135 46.83024597 78.99441528 C48.51786342 71.96493508 50.20860522 64.93621653 51.90264416 57.90828133 C52.77293228 54.29732234 53.64211446 50.68610547 54.50854492 47.07421875 C61.13451458 19.45999293 61.13451458 19.45999293 64.15771484 8.28173828 C64.34939743 7.55487823 64.54108002 6.82801819 64.73857117 6.07913208 C65.19379312 4.44279615 65.73462565 2.83062098 66.29443359 1.22705078 C70.65156831 -0.95151658 76.50850697 -0.00262681 81.29443359 -0.02294922 C82.50873047 -0.04357422 83.72302734 -0.06419922 84.97412109 -0.08544922 C86.13169922 -0.09060547 87.28927734 -0.09576172 88.48193359 -0.10107422 C90.08101562 -0.11509277 90.08101562 -0.11509277 91.71240234 -0.12939453 C92.56447266 -0.01176758 93.41654297 0.10585938 94.29443359 0.22705078 C96.74487366 3.90271089 96.6791301 6.81323055 96.796875 11.07788086 C96.82642776 11.8786908 96.85598053 12.67950073 96.88642883 13.50457764 C96.9822508 16.16834567 97.0643326 18.8323451 97.14599609 21.49658203 C97.20971825 23.37101018 97.27413244 25.24541492 97.33920288 27.11979675 C97.47437616 31.07163821 97.60312684 35.02362017 97.72705078 38.97583008 C97.88316255 43.94803475 98.05166147 48.91971369 98.22456741 53.89135933 C98.84898858 71.92118774 99.41351654 89.94681443 99.44287109 107.98876953 C99.44606354 109.23745316 99.44925598 110.48613678 99.45254517 111.7726593 C99.4227258 120.09875857 99.4227258 120.09875857 98.29443359 121.22705078 C95.30425198 121.35372843 92.34749252 121.41225917 89.35693359 121.41455078 C88.5196875 121.42679688 87.68244141 121.43904297 86.81982422 121.45166016 C86.01867187 121.45359375 85.21751953 121.45552734 84.39208984 121.45751953 C83.65482666 121.46162842 82.91756348 121.4657373 82.15795898 121.4699707 C80.29443359 121.22705078 80.29443359 121.22705078 78.29443359 119.22705078 C77.97799683 116.55062866 77.97799683 116.55062866 77.88378906 113.10351562 C77.8239534 111.16912125 77.8239534 111.16912125 77.76290894 109.19564819 C77.72888301 107.77643451 77.69512763 106.35721432 77.66162109 104.93798828 C77.62041924 103.47699805 77.57842478 102.01602998 77.53567505 100.55508423 C77.4476314 97.480046 77.36585365 94.40492941 77.2890625 91.32958984 C77.19178998 87.43436795 77.08454924 83.53951428 76.97311211 79.6446743 C76.8659632 75.88836886 76.76343291 72.13194165 76.66162109 68.37548828 C76.64250546 67.67926739 76.62338982 66.98304649 76.60369492 66.265728 C76.39757499 58.62549569 76.25108289 50.98572546 76.20898438 43.34277344 C76.20069611 42.02669098 76.19240784 40.71060852 76.18386841 39.35464478 C76.29443359 36.22705078 76.29443359 36.22705078 77.29443359 34.22705078 C76.63443359 34.22705078 75.97443359 34.22705078 75.29443359 34.22705078 C75.15497314 36.00293579 75.15497314 36.00293579 75.01269531 37.81469727 C74.25013887 44.62309487 72.47752968 51.19515216 70.80224609 57.82470703 C70.4517604 59.22748031 70.10165959 60.6303498 69.75192261 62.03330994 C69.02097894 64.9599286 68.28595261 67.88548122 67.54785156 70.81030273 C66.60708491 74.53927622 65.67578231 78.27053477 64.74743843 82.00261784 C64.02685262 84.8955825 63.30164591 87.78737345 62.57503891 90.6788311 C62.23009242 92.05347356 61.88644894 93.42844374 61.54419327 94.80375862 C56.83767618 113.6838082 56.83767618 113.6838082 54.29443359 116.22705078 C51.48748677 116.40728631 48.72856533 116.50512515 45.91943359 116.53955078 C44.74767578 116.58305664 44.74767578 116.58305664 43.55224609 116.62744141 C37.77079185 116.69178978 37.77079185 116.69178978 35.67045593 114.64268494 C33.90873795 111.54995454 33.15231087 108.60987685 32.30151367 105.15112305 C32.12551132 104.44655975 31.94950897 103.74199646 31.76817322 103.01608276 C31.19075371 100.6940732 30.62708545 98.36897206 30.06396484 96.04345703 C29.66535005 94.42431097 29.2660634 92.80533019 28.86613464 91.18650818 C28.03069655 87.79609471 27.20175979 84.40417938 26.37768555 81.01098633 C25.32220631 76.66619967 24.25324859 72.32487181 23.17972279 67.98451328 C22.35422778 64.64244194 21.53461413 61.29895078 20.71689415 57.95496941 C20.32488011 56.35385188 19.93134908 54.75310498 19.53626442 53.15274239 C18.98478758 50.91398069 18.44094207 48.67350017 17.89916992 46.43237305 C17.58845047 45.15870377 17.27773102 43.88503448 16.95759583 42.57276917 C16.38175276 39.66758455 16.15032135 37.17215429 16.29443359 34.22705078 C15.63443359 34.22705078 14.97443359 34.22705078 14.29443359 34.22705078 C14.30228882 36.06420654 14.30228882 36.06420654 14.31030273 37.93847656 C14.3912207 58.81210503 14.45715354 79.68824647 13.9760437 100.55780029 C13.93834982 102.21027572 13.90393814 103.86282932 13.87283325 105.51544189 C13.82826165 107.80120827 13.77064217 110.08623465 13.70849609 112.37158203 C13.6770752 113.65395752 13.6456543 114.93633301 13.61328125 116.25756836 C13.29443359 119.22705078 13.29443359 119.22705078 11.29443359 121.22705078 C9.44677734 121.48583984 9.44677734 121.48583984 7.23193359 121.49267578 C6.03697266 121.49654297 6.03697266 121.49654297 4.81787109 121.50048828 C3.98513672 121.49275391 3.15240234 121.48501953 2.29443359 121.47705078 C1.04533203 121.48865234 1.04533203 121.48865234 -0.22900391 121.50048828 C-1.02564453 121.49791016 -1.82228516 121.49533203 -2.64306641 121.49267578 C-3.37396484 121.49041992 -4.10486328 121.48816406 -4.85791016 121.48583984 C-6.70556641 121.22705078 -6.70556641 121.22705078 -8.70556641 119.22705078 C-8.88135079 116.79854163 -8.92819045 114.4956647 -8.88085938 112.06860352 C-8.87313444 111.31970824 -8.86540951 110.57081297 -8.85745049 109.7992239 C-8.71845917 99.44921116 -8.30385816 89.10455642 -7.90087891 78.76220703 C-7.81597674 76.54927111 -7.73108724 74.3363347 -7.64620972 72.12339783 C-7.46883649 67.52543998 -7.28846049 62.92761026 -7.10644531 58.32983398 C-6.87349318 52.42875627 -6.65263211 46.52728859 -6.43443489 40.62564945 C-6.26410968 36.07452137 -6.08528044 31.5237567 -5.90404892 26.97305107 C-5.81876539 24.79498838 -5.73667337 22.61679833 -5.65781021 20.43849373 C-5.54745977 17.41323267 -5.42516949 14.38868442 -5.29980469 11.36401367 C-5.26959229 10.46283813 -5.23937988 9.5616626 -5.20825195 8.63317871 C-4.84282442 0.4064092 -4.84282442 0.4064092 0 0 Z " fill="#0C2335" transform="translate(839.70556640625,592.77294921875)"/>
<path d="M0 0 C1.04361191 0.00607269 1.04361191 0.00607269 2.10830688 0.01226807 C3.19337021 0.00939789 3.19337021 0.00939789 4.300354 0.00646973 C5.83871812 0.00510642 7.37709367 0.00881298 8.91543579 0.01715088 C11.2287012 0.02769404 13.54116201 0.01734269 15.85440063 0.00445557 C31.06736407 -0.01216771 45.33230489 1.11325905 57.20986938 11.77789307 C69.59391607 25.37454432 71.43096454 43.20907405 71.27236938 60.77789307 C71.28397095 62.06308838 71.29557251 63.34828369 71.30752563 64.67242432 C71.25725925 81.34410812 68.50908754 98.6903704 56.47549438 111.08258057 C44.26819019 121.47728505 29.36870294 121.62083909 14.14834595 121.53863525 C11.74152342 121.52775361 9.33542166 121.53867343 6.92861938 121.55133057 C5.39476357 121.55001157 3.86090821 121.54745458 2.32705688 121.54351807 C1.60944183 121.54756653 0.89182678 121.55161499 0.15246582 121.55578613 C-4.87260336 121.50792032 -4.87260336 121.50792032 -7.10263062 119.27789307 C-7.3543129 117.21015167 -7.3543129 117.21015167 -7.3565979 114.60906982 C-7.36223755 113.62475479 -7.3678772 112.64043976 -7.37368774 111.626297 C-7.36963928 110.54259323 -7.36559082 109.45888947 -7.36141968 108.34234619 C-7.36492432 107.20409897 -7.36842896 106.06585175 -7.37203979 104.89311218 C-7.3808721 101.11506119 -7.37500259 97.3371961 -7.36825562 93.55914307 C-7.36960183 90.94362349 -7.371542 88.32810416 -7.37405396 85.71258545 C-7.37769515 80.22473114 -7.37289052 74.73693062 -7.3633728 69.24908447 C-7.35248792 62.89951851 -7.3560134 56.55008098 -7.36702561 50.20051813 C-7.37718564 44.09868315 -7.37612238 37.99690522 -7.37026215 31.89506531 C-7.3689241 29.29542523 -7.37057874 26.6957819 -7.37522125 24.09614563 C-7.38027727 20.46848762 -7.3725891 16.84107927 -7.36141968 13.21343994 C-7.36546814 12.12973618 -7.3695166 11.04603241 -7.37368774 9.92948914 C-7.3680481 8.9451741 -7.36240845 7.96085907 -7.3565979 6.94671631 C-7.35546682 5.65918079 -7.35546682 5.65918079 -7.3543129 4.34563446 C-6.80280668 -0.18536478 -3.88688458 0.03817906 0 0 Z " fill="#0C2336" transform="translate(649.1026306152344,592.7221069335938)"/>
<path d="M0 0 C1.1219149 -0.0049926 1.1219149 -0.0049926 2.26649475 -0.01008606 C3.85612371 -0.0151567 5.44576335 -0.01749434 7.03540039 -0.01733398 C9.43199115 -0.01949459 11.82810172 -0.03757553 14.22460938 -0.05664062 C27.14332729 -0.10551197 40.2596232 0.04974205 50.57421875 8.921875 C60.9166094 19.81439281 61.00714004 33.61044886 60.80859375 47.78125 C60.48325487 57.14360111 57.7498997 63.79609149 51.27734375 70.57421875 C48.63225268 72.99394332 46.22711536 75.16796875 42.53515625 75.16796875 C42.97384033 76.16127197 43.41252441 77.1545752 43.86450195 78.17797852 C45.50306789 81.88842175 47.14113313 85.59908586 48.77905273 89.30981445 C49.48594888 90.91111108 50.19297802 92.51234901 50.90014648 94.11352539 C51.92076631 96.42448487 52.94089639 98.73566003 53.9609375 101.046875 C54.42987175 102.10824425 54.42987175 102.10824425 54.90827942 103.1910553 C55.50211661 104.53705638 56.09402623 105.88391 56.68374634 107.23171997 C57.25900961 108.53996502 57.84238771 109.84466727 58.43319702 111.14596558 C60.56244007 115.9087725 60.56244007 115.9087725 60.28515625 118.54296875 C59.53515625 120.16796875 59.53515625 120.16796875 58.53515625 121.16796875 C55.41869637 121.44539841 52.28750702 121.39973347 49.16015625 121.41796875 C48.28359375 121.43859375 47.40703125 121.45921875 46.50390625 121.48046875 C45.66085937 121.485625 44.8178125 121.49078125 43.94921875 121.49609375 C43.17529785 121.50543945 42.40137695 121.51478516 41.60400391 121.52441406 C38.95935075 121.06876223 38.27182001 120.17624889 36.53515625 118.16796875 C35.32505056 115.49007155 34.22475149 112.84640656 33.1796875 110.10546875 C32.87318771 109.317771 32.56668793 108.53007324 32.25090027 107.71850586 C31.60591481 106.05567444 30.964832 104.39132468 30.32739258 102.72558594 C29.34988748 100.17379342 28.35857441 97.62769555 27.36523438 95.08203125 C26.74005931 93.46516293 26.11568296 91.8479855 25.4921875 90.23046875 C25.19536575 89.46790771 24.89854401 88.70534668 24.59272766 87.91967773 C23.43109782 84.86828379 22.53515625 82.46198482 22.53515625 79.16796875 C19.23515625 79.16796875 15.93515625 79.16796875 12.53515625 79.16796875 C12.54562988 80.36921387 12.55610352 81.57045898 12.56689453 82.80810547 C12.60302912 87.25468987 12.62603282 91.70126123 12.64501953 96.14794922 C12.65509207 98.07440369 12.66875068 100.00084283 12.68603516 101.92724609 C12.71022866 104.69242127 12.72162661 107.45739475 12.73046875 110.22265625 C12.74079132 111.08728485 12.75111389 111.95191345 12.76174927 112.84274292 C12.76214731 114.95250396 12.65780868 117.06177593 12.53515625 119.16796875 C10.53515625 121.16796875 10.53515625 121.16796875 8.57983398 121.41088867 C7.41109741 121.40472534 7.41109741 121.40472534 6.21875 121.3984375 C5.37248047 121.39650391 4.52621094 121.39457031 3.65429688 121.39257812 C2.76935547 121.38033203 1.88441406 121.36808594 0.97265625 121.35546875 C0.08384766 121.35482422 -0.80496094 121.35417969 -1.72070312 121.35351562 C-8.32463278 121.30817972 -8.32463278 121.30817972 -9.46484375 120.16796875 C-9.56069373 118.62443744 -9.58672445 117.07651767 -9.58509827 115.53001404 C-9.58647293 114.52735504 -9.5878476 113.52469604 -9.58926392 112.49165344 C-9.58566864 111.38251083 -9.58207336 110.27336823 -9.57836914 109.13061523 C-9.57851517 107.96979431 -9.57866119 106.80897339 -9.57881165 105.61297607 C-9.57811192 101.75498623 -9.57031673 97.89704397 -9.5625 94.0390625 C-9.56063603 91.37248147 -9.55916287 88.70590311 -9.55821228 86.0393219 C-9.55509923 79.72467995 -9.54688619 73.41005524 -9.53686279 67.0954209 C-9.52570085 59.90811242 -9.520191 52.72080314 -9.51516736 45.53348815 C-9.50470355 30.74497286 -9.48710461 15.9564711 -9.46484375 1.16796875 C-6.44369047 -0.34260789 -3.31413025 0.00511694 0 0 Z " fill="#0C2436" transform="translate(386.46484375,592.83203125)"/>
<path d="M0 0 C0.87591797 0.00322266 1.75183594 0.00644531 2.65429688 0.00976562 C3.52634766 -0.00634766 4.39839844 -0.02246094 5.296875 -0.0390625 C6.55467773 -0.0400293 6.55467773 -0.0400293 7.83789062 -0.04101562 C8.60544678 -0.04399658 9.37300293 -0.04697754 10.16381836 -0.05004883 C12.91635506 0.44913282 13.56517684 1.04710946 15.21679688 3.32226562 C16.36150064 5.89240465 17.39141565 8.42423667 18.36914062 11.05664062 C18.66937637 11.84451965 18.96961212 12.63239868 19.27894592 13.44415283 C20.2450094 15.98404591 21.19999102 18.52793456 22.15429688 21.07226562 C22.76095289 22.67542023 23.36836925 24.27828732 23.9765625 25.88085938 C24.60111328 27.52699219 25.22566406 29.173125 25.86914062 30.86914062 C31.25075038 45.04603174 36.74269338 59.1808316 42.21679688 73.32226562 C42.54679688 49.56226563 42.87679687 25.80226563 43.21679688 1.32226562 C46.50033236 -0.31950212 50.11199326 0.13772523 53.71679688 0.13476562 C54.50183594 0.12251953 55.286875 0.11027344 56.09570312 0.09765625 C58.13743414 0.09240308 60.17871939 0.20006382 62.21679688 0.32226562 C64.70775193 2.81322068 64.46774612 3.55557697 64.47076416 6.99108887 C64.47640381 7.9754039 64.48204346 8.95971893 64.487854 9.97386169 C64.48380554 11.05756546 64.47975708 12.14126923 64.47558594 13.2578125 C64.47909058 14.39605972 64.48259521 15.53430695 64.48620605 16.70704651 C64.49503836 20.4850975 64.48916885 24.26296259 64.48242188 28.04101562 C64.48376809 30.6565352 64.48570826 33.27205453 64.48822021 35.88757324 C64.49186141 41.37542755 64.48705678 46.86322807 64.47753906 52.35107422 C64.46665418 58.70064018 64.47017965 65.05007771 64.48119187 71.39964056 C64.4913519 77.50147554 64.49028864 83.60325347 64.48442841 89.70509338 C64.48309036 92.30473346 64.484745 94.90437679 64.48938751 97.50401306 C64.49444353 101.13167107 64.48675536 104.75907942 64.47558594 108.38671875 C64.4796344 109.47042252 64.48368286 110.55412628 64.487854 111.67066956 C64.48221436 112.65498459 64.47657471 113.63929962 64.47076416 114.65344238 C64.47001011 115.51179939 64.46925606 116.3701564 64.46847916 117.25452423 C64.21679688 119.32226562 64.21679688 119.32226562 62.21679688 121.32226562 C59.25827578 121.76586635 56.26731236 121.64639214 53.27929688 121.63476562 C52.45494141 121.65087891 51.63058594 121.66699219 50.78125 121.68359375 C49.59112305 121.68456055 49.59112305 121.68456055 48.37695312 121.68554688 C47.6512915 121.68852783 46.92562988 121.69150879 46.17797852 121.69458008 C43.61895848 121.20877085 42.90467336 120.28088521 41.21679688 118.32226562 C40.23997498 116.4213562 40.23997498 116.4213562 39.38256836 114.24755859 C39.05469833 113.42754364 38.72682831 112.60752869 38.38902283 111.76266479 C38.0421492 110.87225494 37.69527557 109.98184509 37.33789062 109.06445312 C36.96632339 108.12916779 36.59475616 107.19388245 36.21192932 106.23025513 C35.0187305 103.22209637 33.83629129 100.20984219 32.65429688 97.19726562 C31.88614004 95.25427115 31.11726633 93.31155993 30.34765625 91.36914062 C28.78879327 87.43263287 27.23383788 83.4946121 25.68115234 79.55566406 C21.56571497 69.1288867 17.38827286 58.72671968 13.21679688 48.32226562 C13.2212381 49.20731781 13.22567932 50.09237 13.23025513 51.00424194 C13.27027994 59.33294493 13.3007548 67.66161575 13.32042122 75.99039268 C13.3308717 80.27260811 13.34505384 84.55474427 13.36767578 88.83691406 C13.38935925 92.96714688 13.40135597 97.09730332 13.40655136 101.22758865 C13.41025523 102.805703 13.41748768 104.38381304 13.42825699 105.96189499 C13.44271237 108.16723514 13.44477735 110.37225705 13.44384766 112.57763672 C13.44828888 113.83450287 13.4527301 115.09136902 13.45730591 116.38632202 C13.21679688 119.32226562 13.21679688 119.32226562 11.21679688 121.32226562 C9.36914062 121.58105469 9.36914062 121.58105469 7.15429688 121.58789062 C5.95933594 121.59175781 5.95933594 121.59175781 4.74023438 121.59570312 C3.9075 121.58796875 3.07476563 121.58023438 2.21679688 121.57226562 C0.96769531 121.58386719 0.96769531 121.58386719 -0.30664062 121.59570312 C-1.10328125 121.593125 -1.89992188 121.59054687 -2.72070312 121.58789062 C-3.45160156 121.58563477 -4.1825 121.58337891 -4.93554688 121.58105469 C-6.78320312 121.32226562 -6.78320312 121.32226562 -8.78320312 119.32226562 C-9.03488541 117.25452423 -9.03488541 117.25452423 -9.03717041 114.65344238 C-9.04281006 113.66912735 -9.04844971 112.68481232 -9.05426025 111.67066956 C-9.05021179 110.58696579 -9.04616333 109.50326202 -9.04199219 108.38671875 C-9.04549683 107.24847153 -9.04900146 106.1102243 -9.0526123 104.93748474 C-9.06144461 101.15943375 -9.0555751 97.38156866 -9.04882812 93.60351562 C-9.05017434 90.98799605 -9.05211451 88.37247672 -9.05462646 85.75695801 C-9.05826766 80.2691037 -9.05346303 74.78130318 -9.04394531 69.29345703 C-9.03306043 62.94389107 -9.0365859 56.59445354 -9.04759812 50.24489069 C-9.05775815 44.14305571 -9.05669489 38.04127778 -9.05083466 31.93943787 C-9.04949661 29.33979779 -9.05115125 26.74015446 -9.05579376 24.14051819 C-9.06084978 20.51286018 -9.05316161 16.88545183 -9.04199219 13.2578125 C-9.04604065 12.17410873 -9.05008911 11.09040497 -9.05426025 9.97386169 C-9.04862061 8.98954666 -9.04298096 8.00523163 -9.03717041 6.99108887 C-9.03603933 5.70355335 -9.03603933 5.70355335 -9.03488541 4.39000702 C-8.3997735 -0.82786993 -4.13497109 0.03501515 0 0 Z " fill="#0D2537" transform="translate(558.783203125,592.677734375)"/>
<path d="M0 0 C0.86367187 -0.04576172 1.72734375 -0.09152344 2.6171875 -0.13867188 C3.4525 -0.15349609 4.2878125 -0.16832031 5.1484375 -0.18359375 C5.91075684 -0.2086499 6.67307617 -0.23370605 7.45849609 -0.25952148 C10.9717371 0.87078087 11.87579175 3.29559996 13.625 6.4375 C14.62162986 8.75728557 15.54320078 11.11023315 16.40234375 13.484375 C16.65440079 14.17210999 16.90645782 14.85984497 17.16615295 15.56842041 C17.9724196 17.77213869 18.76807427 19.97948888 19.5625 22.1875 C20.58848173 25.01707784 21.61951882 27.84478842 22.65234375 30.671875 C23.06484879 31.80369202 23.06484879 31.80369202 23.48568726 32.95837402 C28.69834148 47.17987162 34.1949696 61.29795004 39.625 75.4375 C39.62055878 74.52739166 39.61611755 73.61728333 39.61154175 72.67959595 C39.57151824 64.11543421 39.54104274 55.55130374 39.52137566 46.98707008 C39.51092482 42.58378749 39.49674204 38.18058198 39.47412109 33.77734375 C39.45243888 29.53040176 39.44044117 25.28353404 39.43524551 21.03654099 C39.43154142 19.41376958 39.42430854 17.79100238 39.41353989 16.16826248 C39.3990862 13.90065883 39.39701946 11.63336472 39.39794922 9.36572266 C39.393508 8.07332672 39.38906677 6.78093079 39.38449097 5.44937134 C39.625 2.4375 39.625 2.4375 41.625 0.4375 C43.47265625 0.17871094 43.47265625 0.17871094 45.6875 0.171875 C46.88246094 0.16800781 46.88246094 0.16800781 48.1015625 0.1640625 C48.93429687 0.17179688 49.76703125 0.17953125 50.625 0.1875 C51.45773437 0.17976562 52.29046875 0.17203125 53.1484375 0.1640625 C53.94507813 0.16664063 54.74171875 0.16921875 55.5625 0.171875 C56.29339844 0.17413086 57.02429688 0.17638672 57.77734375 0.17871094 C59.625 0.4375 59.625 0.4375 61.625 2.4375 C61.87668228 4.50524139 61.87668228 4.50524139 61.87896729 7.10632324 C61.88460693 8.09063828 61.89024658 9.07495331 61.89605713 10.08909607 C61.89200867 11.17279984 61.88796021 12.2565036 61.88378906 13.37304688 C61.8872937 14.5112941 61.89079834 15.64954132 61.89440918 16.82228088 C61.90324149 20.60033188 61.89737197 24.37819697 61.890625 28.15625 C61.89197122 30.77176957 61.89391138 33.3872889 61.89642334 36.00280762 C61.90006453 41.49066193 61.89525991 46.97846245 61.88574219 52.46630859 C61.87485731 58.81587455 61.87838278 65.16531209 61.889395 71.51487494 C61.89955503 77.61670992 61.89849177 83.71848784 61.89263153 89.82032776 C61.89129349 92.41996783 61.89294812 95.01961116 61.89759064 97.61924744 C61.90264665 101.24690545 61.89495849 104.8743138 61.88378906 108.50195312 C61.88783752 109.58565689 61.89188599 110.66936066 61.89605713 111.78590393 C61.89041748 112.77021896 61.88477783 113.754534 61.87896729 114.76867676 C61.87821323 115.62703377 61.87745918 116.48539078 61.87668228 117.36975861 C61.625 119.4375 61.625 119.4375 59.625 121.4375 C56.54744046 122.01337577 53.43747908 121.99279786 50.3125 122.0625 C49.45720703 122.12050781 48.60191406 122.17851563 47.72070312 122.23828125 C45.13695818 122.29031639 43.11557097 122.12737889 40.625 121.4375 C35.3860457 116.09392557 33.05447973 107.50566557 30.4296875 100.6875 C29.95556427 99.47481445 29.48144104 98.26212891 28.99295044 97.01269531 C27.74081233 93.80957438 26.49847378 90.60274141 25.25817871 87.39501953 C23.99991724 84.14635089 22.73183041 80.90152321 21.46484375 77.65625 C19.20466449 71.86109847 16.94705581 66.06498151 14.71282959 60.25976562 C14.03279531 58.49548436 13.34707897 56.73337057 12.65289307 54.97460938 C11.48536318 51.97689521 10.625 49.68575995 10.625 46.4375 C9.965 46.4375 9.305 46.4375 8.625 46.4375 C8.955 47.0975 9.285 47.7575 9.625 48.4375 C9.72729548 50.67331511 9.76344314 52.91224696 9.77026367 55.15039062 C9.77362228 55.8399736 9.7769809 56.52955658 9.78044128 57.24003601 C9.78995796 59.52462554 9.79189462 61.80914187 9.79296875 64.09375 C9.79618037 65.67793814 9.79954437 67.26212597 9.80305481 68.84631348 C9.80904754 72.16854541 9.81089452 75.49075132 9.81030273 78.81298828 C9.810201 83.07709741 9.8238644 87.34104045 9.84107494 91.60511017 C9.85217341 94.87698132 9.85422262 98.14881202 9.85369301 101.42070007 C9.85487595 102.99322585 9.85931523 104.56575257 9.86702538 106.13825989 C9.87678389 108.33382946 9.8739641 110.52903438 9.86791992 112.72460938 C9.86934494 113.97544312 9.87076996 115.22627686 9.87223816 116.51501465 C9.625 119.4375 9.625 119.4375 7.625 121.4375 C4.75157939 121.63606972 1.99638012 121.71578946 -0.875 121.6875 C-2.05255859 121.69910156 -2.05255859 121.69910156 -3.25390625 121.7109375 C-9.12169213 121.69080787 -9.12169213 121.69080787 -11.375 119.4375 C-11.62109566 117.34855461 -11.62109566 117.34855461 -11.61550903 114.71725464 C-11.61825836 113.72163513 -11.62100769 112.72601562 -11.62384033 111.70022583 C-11.61664978 110.60402924 -11.60945923 109.50783264 -11.60205078 108.37841797 C-11.60234283 107.22720459 -11.60263489 106.07599121 -11.60293579 104.88989258 C-11.60153807 101.06974858 -11.58595592 97.24979759 -11.5703125 93.4296875 C-11.56658395 90.78695787 -11.56373623 88.14422686 -11.56173706 85.50149536 C-11.55551494 79.24706866 -11.53909429 72.99271167 -11.51903808 66.7383157 C-11.49670179 59.6187048 -11.48569137 52.49909062 -11.47564721 45.37945342 C-11.45472866 30.73209961 -11.41953851 16.08480078 -11.375 1.4375 C-7.85179361 -0.32410319 -3.88242847 0.08327694 0 0 Z " fill="#0B2336" transform="translate(209.375,592.5625)"/>
<path d="M0 0 C3.93736123 -0.08696177 7.87447628 -0.14037835 11.8125 -0.1875 C13.49182617 -0.22520508 13.49182617 -0.22520508 15.20507812 -0.26367188 C16.27822266 -0.27333984 17.35136719 -0.28300781 18.45703125 -0.29296875 C19.9416687 -0.31653442 19.9416687 -0.31653442 21.45629883 -0.34057617 C24.49882744 0.06678801 25.09262621 0.67031149 27 3 C27.73558044 4.8973608 27.73558044 4.8973608 28.25170898 7.07640076 C28.5543013 8.31869698 28.5543013 8.31869698 28.86300659 9.58609009 C29.07192535 10.49152557 29.28084412 11.39696106 29.49609375 12.32983398 C29.84065109 13.76461342 29.84065109 13.76461342 30.19216919 15.2283783 C30.95082192 18.39861359 31.69414269 21.57224032 32.4375 24.74609375 C32.96315212 26.95531166 33.48977754 29.1642982 34.01733398 31.37306213 C35.40657959 37.20073334 36.78297075 43.03136675 38.15661621 48.86273193 C39.54759534 54.75853859 40.94983534 60.65166302 42.3515625 66.54492188 C43.9307488 73.18600304 45.50885293 79.82732035 47.07788086 86.47080994 C47.3173494 87.48371629 47.55681793 88.49662264 47.80354309 89.54022312 C48.26209194 91.48175463 48.71948337 93.42355994 49.17558289 95.3656683 C50.08602835 99.22713986 51.00432265 103.08125619 52.03857422 106.91165161 C52.32361816 107.97084808 52.60866211 109.03004456 52.90234375 110.12133789 C53.14331787 110.97006973 53.38429199 111.81880157 53.63256836 112.69325256 C54.06349938 115.3986511 53.73414317 117.3738229 53 120 C50.84095181 122.15904819 46.11115455 121.23159535 43.125 121.25 C42.29613281 121.270625 41.46726562 121.29125 40.61328125 121.3125 C39.41638672 121.32023438 39.41638672 121.32023438 38.1953125 121.328125 C37.46328613 121.3374707 36.73125977 121.34681641 35.97705078 121.35644531 C33.37099532 120.88659585 32.57217268 120.11352172 31 118 C30.20043945 115.76342773 30.20043945 115.76342773 29.61328125 113.18359375 C29.2894043 111.79043945 29.2894043 111.79043945 28.95898438 110.36914062 C28.63897461 108.91797852 28.63897461 108.91797852 28.3125 107.4375 C28.08755859 106.46619141 27.86261719 105.49488281 27.63085938 104.49414062 C26 97.36098974 26 97.36098974 26 95 C16.76 95 7.52 95 -2 95 C-2.66 98.63 -3.32 102.26 -4 106 C-4.47889355 108.35855075 -4.9748969 110.71380516 -5.5 113.0625 C-5.7371875 114.14660156 -5.974375 115.23070312 -6.21875 116.34765625 C-7 119 -7 119 -9 121 C-10.84765625 121.24291992 -10.84765625 121.24291992 -13.0625 121.23046875 C-13.85914063 121.22853516 -14.65578125 121.22660156 -15.4765625 121.22460938 C-16.30929687 121.21236328 -17.14203125 121.20011719 -18 121.1875 C-18.83273437 121.18685547 -19.66546875 121.18621094 -20.5234375 121.18554688 C-26.71913485 121.14043257 -26.71913485 121.14043257 -29 120 C-28.47298148 112.95258507 -27.30768494 106.27410458 -25.63916016 99.41308594 C-25.39999374 98.40689209 -25.16082733 97.40069824 -24.91441345 96.36401367 C-24.1292937 93.06916629 -23.33456677 89.77672928 -22.5390625 86.484375 C-21.98680605 84.18142328 -21.43492187 81.87838226 -20.88339233 79.57525635 C-19.72935074 74.76297872 -18.57047183 69.95189854 -17.40820312 65.14160156 C-15.92025852 58.98149663 -14.44498588 52.81843798 -12.97336769 46.65441513 C-11.83765259 41.90392534 -10.6949864 37.15512852 -9.55024338 32.40680695 C-9.00343112 30.13477684 -8.45883814 27.86221142 -7.91652298 25.5891037 C-7.15798539 22.41408694 -6.39004656 19.24148781 -5.61962891 16.06933594 C-5.39821732 15.13414124 -5.17680573 14.19894653 -4.94868469 13.2354126 C-3.78050917 8.47092865 -2.43050304 4.31192676 0 0 Z " fill="#0C2436" transform="translate(485,593)"/>
<path d="M0 0 C1.45599609 0.00108765 1.45599609 0.00108765 2.94140625 0.00219727 C4.00101562 0.00026367 5.060625 -0.00166992 6.15234375 -0.00366211 C7.81136719 0.03210938 7.81136719 0.03210938 9.50390625 0.06860352 C10.60992187 0.05764648 11.7159375 0.04668945 12.85546875 0.03540039 C20.95484239 0.10929979 20.95484239 0.10929979 23.23974609 2.28076172 C24.75777233 5.1030944 25.45611312 7.67371373 26.16796875 10.80297852 C26.3174144 11.44535461 26.46686005 12.08773071 26.62083435 12.74957275 C27.13260547 14.95809455 27.63055948 17.16951678 28.12890625 19.38110352 C28.69660331 21.85221392 29.26769648 24.32252641 29.83882141 26.79284668 C30.27542834 28.68247354 30.71082498 30.57238035 31.14518738 32.46252441 C33.14859036 41.16037249 35.21599897 49.84232241 37.29251099 58.52292633 C38.46376208 63.42176826 39.63098663 68.32157166 40.79861069 73.22127914 C41.77990709 77.33786359 42.76327985 81.4539305 43.7510376 85.56896973 C44.69698615 89.51098775 45.63627674 93.45453822 46.5709095 97.39925385 C46.92141451 98.87342716 47.27428937 100.34703927 47.62966728 101.82004547 C48.12143885 103.85979934 48.60476941 105.90138372 49.08618164 107.94360352 C49.49846764 109.67030273 49.49846764 109.67030273 49.91908264 111.43188477 C50.49398785 114.5768459 50.61333514 117.44234536 50.50390625 120.63110352 C47.08563878 122.34023725 43.27035862 121.8156883 39.50390625 121.81860352 C38.67117188 121.83084961 37.8384375 121.8430957 36.98046875 121.85571289 C35.78550781 121.85861328 35.78550781 121.85861328 34.56640625 121.86157227 C33.83550781 121.86568115 33.10460937 121.86979004 32.3515625 121.87402344 C30.50390625 121.63110352 30.50390625 121.63110352 28.50390625 119.63110352 C27.81787109 117.41625977 27.81787109 117.41625977 27.21484375 114.69360352 C26.99570312 113.71649414 26.7765625 112.73938477 26.55078125 111.73266602 C26.3290625 110.70915039 26.10734375 109.68563477 25.87890625 108.63110352 C25.53472656 107.09583008 25.53472656 107.09583008 25.18359375 105.52954102 C23.50390625 97.95095099 23.50390625 97.95095099 23.50390625 95.63110352 C14.26390625 95.96110352 5.02390625 96.29110352 -4.49609375 96.63110352 C-6.01876803 103.73360914 -6.01876803 103.73360914 -7.5168457 110.84130859 C-7.71238037 111.72713623 -7.90791504 112.61296387 -8.109375 113.52563477 C-8.30313721 114.431604 -8.49689941 115.33757324 -8.6965332 116.27099609 C-9.57914023 118.87623643 -10.26688687 120.0326878 -12.49609375 121.63110352 C-14.47314453 121.98754883 -14.47314453 121.98754883 -16.69140625 121.95922852 C-17.48933594 121.95407227 -18.28726562 121.94891602 -19.109375 121.94360352 C-19.93824219 121.92297852 -20.76710938 121.90235352 -21.62109375 121.88110352 C-22.45769531 121.87594727 -23.29429687 121.87079102 -24.15625 121.86547852 C-30.34192195 121.78527531 -30.34192195 121.78527531 -31.49609375 120.63110352 C-31.43678395 112.37494539 -29.45675573 104.43190704 -27.46875 96.47094727 C-27.00183745 94.5582083 -26.53492571 92.64546914 -26.06804943 90.73272133 C-25.40708799 88.03376989 -24.73870195 85.33667607 -24.07063293 82.63947678 C-23.21147702 79.16473682 -22.36019208 75.68807212 -21.50878906 72.21142578 C-21.33910677 71.5185871 -21.16942448 70.82574842 -20.9946003 70.11191463 C-20.65196786 68.71286684 -20.30936288 67.31381232 -19.96678543 65.91475105 C-19.45337742 63.81963359 -18.93885654 61.72479181 -18.42416382 59.62998962 C-16.3611479 51.22502414 -14.34520195 42.81020214 -12.3828125 34.38110352 C-12.03749229 32.90305992 -12.03749229 32.90305992 -11.68519592 31.39515686 C-10.83123827 27.73777405 -9.97741265 24.08046492 -9.14041138 20.41915894 C-8.58405929 17.98672438 -8.01763312 15.5568362 -7.44921875 13.12719727 C-7.29357956 12.4311438 -7.13794037 11.73509033 -6.97758484 11.01794434 C-4.64790477 1.1751598 -4.64790477 1.1751598 0 0 Z " fill="#0C2436" transform="translate(314.49609375,592.368896484375)"/>
<path d="M0 0 C0.495 0.99 0.495 0.99 1 2 C-0.15379392 4.76910541 -1.51501702 7.40292185 -2.87109375 10.078125 C-4.10864146 13.28118966 -4.28042458 15.59554718 -4 19 C-3.67 19.33 -3.34 19.66 -3 20 C4.35496984 19.59431218 10.85976202 17.72823439 17.8125 15.375 C18.87041748 15.02034668 19.92833496 14.66569336 21.01831055 14.30029297 C28.6353146 11.66329919 35.36180367 8.6254852 42 4 C42.99 3.34 43.98 2.68 45 2 C45.31710937 3.1653125 45.63421875 4.330625 45.9609375 5.53125 C48.72883337 15.36384151 52.00845179 24.74531087 56.0625 34.125 C66 57.1558777 66 57.1558777 66 66 C64.68 66 63.36 66 62 66 C61.79246094 65.38253906 61.58492187 64.76507813 61.37109375 64.12890625 C57.81420363 54.35117903 52.17970042 46.22732941 43 41 C32.0703941 36.26383744 20.90472678 33.66337919 9.25 37.625 C-5.02936557 43.54875428 -11.13459724 52.68111865 -18 66 C-24.27 66 -30.54 66 -37 66 C-37.495 64.55625 -37.99 63.1125 -38.5 61.625 C-43.31353355 49.74264095 -51.44029943 43.37915678 -62.8125 38.1875 C-72.74019355 34.4889475 -83.36579398 34.97752146 -93.21484375 38.67578125 C-105.10879986 44.33083191 -112.23543368 54.0556494 -117 66 C-117.99 66 -118.98 66 -120 66 C-118.79518816 56.48410407 -116.14120588 47.6673839 -113.0625 38.625 C-109.73074462 28.81449593 -106.94120521 19.20049334 -105 9 C-103.22689453 9.433125 -103.22689453 9.433125 -101.41796875 9.875 C-66.59756614 17.63973218 -32.95126952 12.54754557 0 0 Z " fill="#F8BF81" transform="translate(527,207)"/>
<path d="M0 0 C1.38638672 -0.0309375 1.38638672 -0.0309375 2.80078125 -0.0625 C3.68894531 -0.06765625 4.57710937 -0.0728125 5.4921875 -0.078125 C6.30800293 -0.0874707 7.12381836 -0.09681641 7.96435547 -0.10644531 C10.78344397 0.35862466 11.38564589 0.98112079 13.125 3.25 C13.84414224 5.6562466 14.40464354 7.93897929 14.88671875 10.39257812 C15.03839508 11.11661835 15.19007141 11.84065857 15.34634399 12.5866394 C15.84565579 14.98278487 16.32894893 17.38187887 16.8125 19.78125 C17.15866025 21.4547748 17.50592645 23.12807118 17.85424805 24.80114746 C18.77033488 29.21396841 19.67336966 33.62935512 20.57312012 38.04553223 C22.00971187 45.08549912 23.46617322 52.12138065 24.92227173 59.15733337 C25.4262879 61.60187003 25.92491063 64.04745609 26.42260742 66.49328613 C28.06108348 74.49569855 29.81481802 82.40748376 32.125 90.25 C33.86420572 82.30270354 35.60323519 74.35536854 37.34205914 66.40798855 C38.30750046 61.99542101 39.27303934 57.58287485 40.23876762 53.1703701 C40.55194989 51.73913038 40.86502611 50.30786744 41.17799568 48.87658119 C41.95078189 45.3426785 42.7250049 41.8091041 43.50241089 38.2762146 C44.90304478 31.90264127 46.28352689 25.52657196 47.59228516 19.13330078 C47.8147139 18.06177261 48.03714264 16.99024445 48.26631165 15.88624573 C48.67228159 13.92263937 49.06938616 11.95716986 49.45573425 9.98960876 C49.63381119 9.13460281 49.81188812 8.27959686 49.99536133 7.39868164 C50.14258133 6.66363907 50.28980133 5.9285965 50.44148254 5.17127991 C51.25799767 2.8761606 52.24270706 1.77518594 54.125 0.25 C56.19384766 -0.10644531 56.19384766 -0.10644531 58.5390625 -0.078125 C59.80363281 -0.07039062 59.80363281 -0.07039062 61.09375 -0.0625 C61.9703125 -0.041875 62.846875 -0.02125 63.75 0 C64.63429688 0.00515625 65.51859375 0.0103125 66.4296875 0.015625 C72.97088509 0.09588509 72.97088509 0.09588509 74.125 1.25 C73.63770864 8.92358295 71.81140731 16.15035565 69.9140625 23.58203125 C69.58601997 24.88520124 69.25852374 26.18850885 68.93153381 27.49194336 C68.05826258 30.96680143 67.17786125 34.43981281 66.295681 37.91241837 C65.38229731 41.51131495 64.47410846 45.11152149 63.56567383 48.71166992 C63.19991785 50.16102914 62.83414941 51.61038522 62.46836853 53.05973816 C62.19688649 54.13547624 62.19688649 54.13547624 61.91991997 55.2329464 C61.37086415 57.4071592 60.82089296 59.58113887 60.27076721 61.75508118 C58.04787089 70.54587643 55.86610047 79.34567617 53.72265625 88.15625 C52.98279125 91.18152251 52.24235485 94.20665476 51.50189209 97.23178101 C51.04427154 99.11082081 50.59017819 100.99072332 50.13970947 102.87149048 C49.52307023 105.44405852 48.89386366 108.01323731 48.26171875 110.58203125 C48.08737808 111.32582031 47.91303741 112.06960938 47.7334137 112.8359375 C46.08737293 119.42696867 46.08737293 119.42696867 43.125 121.25 C39.1565812 121.91761349 35.14334538 121.75936677 31.125 121.75 C30.01898438 121.77835938 28.91296875 121.80671875 27.7734375 121.8359375 C26.71382812 121.83851563 25.65421875 121.84109375 24.5625 121.84375 C23.10650391 121.85438477 23.10650391 121.85438477 21.62109375 121.86523438 C19.125 121.25 19.125 121.25 17.5980835 119.18397522 C15.88689555 115.77576174 14.93554793 112.37806845 14.05957031 108.69116211 C13.87530487 107.94536896 13.69103943 107.19957581 13.50119019 106.43118286 C12.89394848 103.96509576 12.29855484 101.49630694 11.703125 99.02734375 C11.27652384 97.28534453 10.84916191 95.54353145 10.42108154 93.80189514 C9.2919862 89.1997744 8.17278991 84.59530271 7.05578613 79.99023438 C5.94374512 75.41206303 4.82333151 70.83594462 3.703125 66.25976562 C2.39548761 60.91747956 1.08896482 55.57494248 -0.21008301 50.2305603 C-2.12887793 42.34216642 -4.06248304 34.45900727 -6.07617188 26.59423828 C-6.24422459 25.93508832 -6.4122773 25.27593836 -6.58542252 24.59681416 C-7.35093204 21.59490138 -8.1227595 18.59497732 -8.90789795 15.59812927 C-9.17064514 14.57131546 -9.43339233 13.54450165 -9.70410156 12.48657227 C-9.93212463 11.61186783 -10.16014771 10.73716339 -10.39508057 9.83595276 C-10.93777648 6.91174109 -11.02221809 4.21778887 -10.875 1.25 C-8.5728275 -1.0521725 -3.09057726 0.01709863 0 0 Z " fill="#0C2436" transform="translate(70.875,592.75)"/>
<path d="M0 0 C0.09796875 1.01578125 0.1959375 2.0315625 0.296875 3.078125 C1.52569187 17.44421662 1.52569187 17.44421662 7.69140625 30.078125 C9 32 9 32 8.875 34.0078125 C4.39866194 44.19947506 -6.81263956 50.02195002 -16.62890625 53.8984375 C-36.89639459 60.52118572 -58.79876376 59.46840622 -78 50 C-84.13116267 46.33590041 -90.18191655 42.13620554 -94 36 C-93.59110623 32.09572405 -92.14685827 28.78000785 -90.625 25.1875 C-87.63017757 17.61797779 -86.26325231 10.00059794 -85 2 C-84.05640625 2.53109375 -83.1128125 3.0621875 -82.140625 3.609375 C-64.70620011 13.26195962 -47.0830169 18.30220226 -27.25 13.4375 C-20.09199749 11.27470569 -5.85130882 0 0 0 Z " fill="#F9BF81" transform="translate(543,405)"/>
<path d="M0 0 C8.57906641 4.40687606 14.5059227 11.9716662 17.9453125 20.8828125 C19.58161774 29.88249135 18.15590979 37.43640652 13.8828125 45.5078125 C7.42337873 53.36388059 0.47506725 58.38833269 -9.7578125 59.76953125 C-19.61108548 60.25785425 -26.77793263 57.61278455 -34.58984375 51.6796875 C-40.52461553 46.2867314 -43.89287815 38.8292085 -44.66796875 30.875 C-44.95809503 20.39991425 -41.92180881 12.9321531 -34.72265625 5.30078125 C-24.60888774 -3.43462017 -12.2137249 -4.975962 0 0 Z " fill="#F8C183" transform="translate(463.4296875,255.6796875)"/>
<path d="M0 0 C7.33584639 5.04886191 12.58572204 11.40178199 15 20 C16.15182203 30.43336468 14.5123691 39.90533402 8 48.3125 C1.35876913 55.12221876 -6.48881237 58.56930776 -16 58.75 C-24.66257018 58.58542968 -31.7412942 55.83283522 -38.1875 50.03125 C-45.12088954 42.52007799 -47.42777759 34.9789238 -47.265625 24.8984375 C-46.31697767 14.54702104 -40.01258657 7.09074835 -32.29296875 0.5546875 C-22.44767788 -6.45910811 -10.32672662 -5.32790144 0 0 Z " fill="#F8BF82" transform="translate(565,257)"/>
<path d="M0 0 C4.98587423 2.17565421 7.0522973 5.05641135 9.19140625 9.8671875 C16.29449542 28.60287197 16.17387988 57.68977397 8.14453125 76.00390625 C6.14879203 79.48452994 3.50599547 81.24700227 0 83 C-4.81986354 83.57779851 -9.76378351 84.05577469 -14.2421875 81.94140625 C-21.35509641 76.30908138 -22.31111956 68.23815149 -23.57446289 59.76977539 C-24.25689968 53.72416069 -24.33449825 47.70968621 -24.31567383 41.63427734 C-24.31250262 39.50176275 -24.33612367 37.37062705 -24.36132812 35.23828125 C-24.40945636 24.73594254 -24.37417028 12.21693259 -17 4 C-11.8726135 -0.75221187 -6.66465834 -0.95351297 0 0 Z " fill="#FAF8F5" transform="translate(781,612)"/>
<path d="M0 0 C0.88494141 -0.01224609 1.76988281 -0.02449219 2.68164062 -0.03710938 C3.52791016 -0.03904297 4.37417969 -0.04097656 5.24609375 -0.04296875 C6.02525146 -0.04707764 6.80440918 -0.05118652 7.60717773 -0.05541992 C9.5625 0.1875 9.5625 0.1875 11.5625 2.1875 C11.81418228 4.23683071 11.81418228 4.23683071 11.81646729 6.81163025 C11.82210693 7.78608597 11.82774658 8.76054169 11.83355713 9.76452637 C11.82950867 10.83730835 11.82546021 11.91009033 11.82128906 13.01538086 C11.8247937 14.14226822 11.82829834 15.26915558 11.83190918 16.43019104 C11.84074204 20.1709705 11.83487139 23.91156222 11.828125 27.65234375 C11.8294713 30.24304745 11.83141153 32.8337509 11.83392334 35.42445374 C11.83687679 40.86103953 11.83275988 46.29755426 11.82324219 51.73413086 C11.81236273 58.02119329 11.81587875 64.30812595 11.826895 70.59518522 C11.83706222 76.63935258 11.83598881 82.68345641 11.83013153 88.72763252 C11.82879442 91.3013263 11.83044487 93.87502337 11.83509064 96.4487133 C11.84015326 100.0426404 11.83244882 103.63631628 11.82128906 107.23022461 C11.82533752 108.30098236 11.82938599 109.37174011 11.83355713 110.47494507 C11.82791748 111.45222061 11.82227783 112.42949615 11.81646729 113.43638611 C11.81571323 114.28644698 11.81495918 115.13650785 11.81418228 116.01232815 C11.5625 118.1875 11.5625 118.1875 9.5625 121.1875 C7.71484375 121.54394531 7.71484375 121.54394531 5.5 121.515625 C4.70335937 121.51046875 3.90671875 121.5053125 3.0859375 121.5 C2.25320312 121.479375 1.42046875 121.45875 0.5625 121.4375 C-0.68660156 121.42976562 -0.68660156 121.42976562 -1.9609375 121.421875 C-8.12842608 121.34203696 -8.12842608 121.34203696 -10.4375 120.1875 C-10.46082946 104.68910144 -10.47847941 89.19070418 -10.48931217 73.69229221 C-10.49447503 66.49659705 -10.50151753 59.30091278 -10.51293945 52.10522461 C-10.5228866 45.83565306 -10.5293535 39.56608939 -10.53158849 33.29651016 C-10.53289555 29.97484379 -10.53649997 26.65320534 -10.54323006 23.33154488 C-10.55043628 19.62930053 -10.55149112 15.92710369 -10.55102539 12.22485352 C-10.55462067 11.11571091 -10.55821594 10.0065683 -10.56192017 8.86381531 C-10.5605455 7.86115631 -10.55917084 6.85849731 -10.55775452 5.82545471 C-10.55867631 4.94882958 -10.5595981 4.07220446 -10.56054783 3.16901493 C-10.25425327 -1.76343491 -3.76812146 0.0027325 0 0 Z " fill="#0B2538" transform="translate(167.4375,592.8125)"/>
<path d="M0 0 C6.14473252 1.38170661 11.07316809 3.32418065 15.796875 7.62890625 C21.03945415 16.34891309 22.61823575 26.8332913 24.484375 36.69140625 C24.78846609 38.25366732 25.0925841 39.81592314 25.39672852 41.37817383 C27.44780424 52.06659225 29.23491525 62.74523683 29.796875 73.62890625 C29.85593018 74.32709473 29.91498535 75.0252832 29.97583008 75.74462891 C30.16558151 79.16015462 30.18815344 81.12015596 28.06640625 83.87890625 C27.25558594 84.45640625 26.44476562 85.03390625 25.609375 85.62890625 C24.25779297 86.6034375 24.25779297 86.6034375 22.87890625 87.59765625 C7.65841346 97.62890625 7.65841346 97.62890625 4.796875 97.62890625 C4.66635742 96.47704834 4.53583984 95.32519043 4.40136719 94.13842773 C0.50039039 57.26945132 0.50039039 57.26945132 -7.203125 21.06640625 C-7.44023193 20.20233154 -7.67733887 19.33825684 -7.92163086 18.44799805 C-9.61837669 12.67099621 -11.47012432 7.57458554 -16.5625 3.94921875 C-17.35140625 3.55476563 -18.1403125 3.1603125 -18.953125 2.75390625 C-19.75234375 2.34398437 -20.5515625 1.9340625 -21.375 1.51171875 C-21.97828125 1.22039062 -22.5815625 0.9290625 -23.203125 0.62890625 C-16.72710263 -3.688442 -7.30421838 -1.35298346 0 0 Z " fill="#1569A5" transform="translate(591.203125,419.37109375)"/>
<path d="M0 0 C0.95648438 0.01353516 1.91296875 0.02707031 2.8984375 0.04101562 C5.2245811 0.07590778 7.5494653 0.12491661 9.875 0.1875 C7.56311666 1.93137752 5.23863412 3.63825916 2.875 5.3125 C-4.29708824 11.4507334 -5.46836161 22.03167989 -7.30761719 30.82421875 C-7.74668494 32.9216638 -8.20013645 35.01557788 -8.65625 37.109375 C-11.80029695 51.68650582 -13.58465593 66.153694 -14.75 81 C-14.88498665 82.67516491 -15.02040058 84.35029546 -15.15625 86.02539062 C-15.48408156 90.07904866 -15.80617037 94.13312442 -16.125 98.1875 C-19.21138041 97.02229132 -21.95446098 95.79851878 -24.68359375 93.9453125 C-25.63395508 93.30529297 -25.63395508 93.30529297 -26.60351562 92.65234375 C-27.24998047 92.21019531 -27.89644531 91.76804687 -28.5625 91.3125 C-29.20509766 90.87808594 -29.84769531 90.44367188 -30.50976562 89.99609375 C-31.78003142 89.13721352 -33.04523584 88.27079379 -34.30493164 87.39648438 C-36.0062616 86.26637224 -37.79518585 85.2713484 -39.5859375 84.2890625 C-42.125 82.1875 -42.125 82.1875 -42.66796875 79.203125 C-42.55066406 77.96046875 -42.43335938 76.7178125 -42.3125 75.4375 C-42.24772461 74.72505127 -42.18294922 74.01260254 -42.11621094 73.27856445 C-41.83980277 70.57257258 -41.48924953 67.88312016 -41.125 65.1875 C-40.96531738 63.99753418 -40.80563477 62.80756836 -40.64111328 61.58154297 C-38.7885224 48.18729427 -36.76913634 34.7850586 -33.625 21.625 C-33.44807617 20.85373779 -33.27115234 20.08247559 -33.08886719 19.2878418 C-31.54317518 13.28170494 -28.8758459 8.38817672 -23.9375 4.4375 C-15.94269512 0.88425339 -8.70846924 -0.23850442 0 0 Z " fill="#1569A4" transform="translate(422.125,418.8125)"/>
<path d="M0 0 C18.72093023 0 18.72093023 0 25.875 6.6875 C32.20675259 16.55758493 32.21028796 27.56662265 32.24023438 38.94750977 C32.24989738 41.16396234 32.28094868 43.37946917 32.3125 45.59570312 C32.40165026 57.38090375 31.60067758 68.16041471 23 77 C15.67481192 82.40668644 9.57312478 81 0 81 C0 54.27 0 27.54 0 0 Z " fill="#FBF9F6" transform="translate(664,613)"/>
<path d="M0 0 C0.94359375 0.53109375 1.8871875 1.0621875 2.859375 1.609375 C20.29379989 11.26195962 37.9169831 16.30220226 57.75 11.4375 C65.32063614 9.16386439 72.07247948 5.75510458 79 2 C80.33028132 1.32726393 81.66214063 0.65753672 83 0 C84 1 84 1 84.75 4.5 C84.69296469 7.69397747 84.16577269 8.8097907 82.0390625 11.25 C66.82853616 24.09642694 51.01420663 30.63452686 31 29 C22.09653885 27.74583225 14.65832134 23.52445564 7 19 C6.2265625 18.57589844 5.453125 18.15179688 4.65625 17.71484375 C2.19762129 16.22858254 0.32012424 14.89336997 -0.671875 12.125 C-1.3431393 7.90562442 -0.7634654 4.19309513 0 0 Z " fill="#E99855" transform="translate(458,407)"/>
<path d="M0 0 C14 0 14 0 20 3 C24.92978881 8.06672739 26.28724905 13.42257054 26.3125 20.375 C26.19463098 26.46258797 25.8879931 31.85161408 21.5703125 36.55859375 C14.504896 42.76280276 10.55733033 41 0 41 C0 27.47 0 13.94 0 0 Z " fill="#FBF9F6" transform="translate(399,612)"/>
<path d="M0 0 C2.10546875 1.171875 2.10546875 1.171875 4.1875 2.75 C13.04953903 9.0081678 23.13763033 12.24141368 34 11 C42.29279663 8.93125934 49.78684103 6.05723529 56.8515625 1.13671875 C59.43980726 -0.23269802 61.10976192 -0.29384087 64 0 C65.875 1.125 65.875 1.125 67 3 C66.80708797 6.48653213 66.58990551 8.38536051 64.13671875 10.94140625 C50.01778441 20.28647444 34.69925673 25.68203502 17.66796875 22.34765625 C8.98994086 19.90269797 -3.15296147 16.1384397 -8 8 C-8.42644513 5.08595831 -8.43575437 3.66509877 -6.8125 1.1875 C-4.36181338 -0.41812227 -2.8970802 -0.26919772 0 0 Z " fill="#0E2135" transform="translate(470,352)"/>
<path d="M0 0 C4.01381407 1.78391736 6.77563295 3.13662565 9 7 C12.00739942 17.03878399 9.23260106 27.16695017 4.8671875 36.39453125 C0.25970908 44.37370746 -5.50494291 47.99811972 -14 51 C-13.81654844 49.64190787 -13.6329129 48.28384059 -13.44921875 46.92578125 C-13.32973877 46.04035645 -13.21025879 45.15493164 -13.0871582 44.24267578 C-12.81814694 42.27036474 -12.54445828 40.29868664 -12.26635742 38.32763672 C-11.55656541 33.27172743 -10.90497004 28.22671612 -10.4140625 23.14453125 C-8.79978334 7.68356377 -8.79978334 7.68356377 -3.8125 2.6875 C-1.64453125 1.01171875 -1.64453125 1.01171875 0 0 Z " fill="#F6C283" transform="translate(614,273)"/>
<path d="M0 0 C1.65625 1.58203125 1.65625 1.58203125 3.5 3.8125 C4.1084375 4.52019531 4.716875 5.22789062 5.34375 5.95703125 C7.79179279 10.45473252 8.29405746 14.96505754 9 20 C9.17370117 21.22098389 9.34740234 22.44196777 9.52636719 23.69995117 C10.07816443 27.69354658 10.60547205 31.68962238 11.125 35.6875 C11.30834606 37.08271486 11.49193827 38.4778974 11.67578125 39.87304688 C12.11959793 43.24838952 12.56094877 46.62403476 13 50 C4.96324846 48.12179238 -0.6865872 43.75248216 -5.45703125 36.91015625 C-6.48351603 34.96867754 -7.27966102 33.07306858 -8 31 C-8.61875 29.2675 -8.61875 29.2675 -9.25 27.5 C-10.16812403 23.31836238 -10.28065977 19.07898884 -10.375 14.8125 C-10.40110352 14.12285156 -10.42720703 13.43320312 -10.45410156 12.72265625 C-10.46637691 9.1031815 -10.09978543 7.15338917 -8.109375 4.09375 C-5.58621679 1.58928186 -3.62255788 0 0 0 Z " fill="#F7C284" transform="translate(387,273)"/>
<path d="M0 0 C2.35515872 3.92155528 3.03647191 8.17593083 3.9453125 12.59765625 C4.12005096 13.42833115 4.29478943 14.25900604 4.474823 15.11485291 C4.84213638 16.86678897 5.20675276 18.61929238 5.56884766 20.37231445 C6.12398003 23.05756627 6.68825121 25.7407754 7.25390625 28.42382812 C7.60991587 30.12749123 7.96540253 31.83126372 8.3203125 33.53515625 C8.48902863 34.33832779 8.65774475 35.14149933 8.83157349 35.9690094 C9.46119111 39.03148058 10 41.86446262 10 45 C3.4 45 -3.2 45 -10 45 C-7.61627802 32.99346591 -5.23155735 20.98676638 -2.75 9 C-2.58725586 8.20037842 -2.42451172 7.40075684 -2.25683594 6.5769043 C-1.11611992 1.11611992 -1.11611992 1.11611992 0 0 Z " fill="#F7F6F4" transform="translate(497,624)"/>
<path d="M0 0 C0.66 0 1.32 0 2 0 C4.97 14.85 7.94 29.7 11 45 C4.4 45 -2.2 45 -9 45 C-7.57152332 34.93573245 -5.5936451 25.10080969 -3.375 15.1875 C-3.0464934 13.70516264 -2.71836623 12.22274114 -2.390625 10.74023438 C-1.59810581 7.15917917 -0.80051422 3.5792776 0 0 Z " fill="#F8F6F5" transform="translate(323,624)"/>
<path d="M0 0 C6.53532609 3.70923913 6.53532609 3.70923913 8.5625 6.75 C8.9375 9.875 8.9375 9.875 8.5625 12.75 C6.5625 14.75 6.5625 14.75 4.4375 15.1875 C1.37585554 14.72159758 0.2449195 13.98026834 -2.25 12.25 C-6.63357043 9.34413034 -9.22179609 9.07700595 -14.4375 9.75 C-17.76680223 11.13197451 -20.44135003 12.75256668 -23.4375 14.75 C-27.97804054 14.20945946 -27.97804054 14.20945946 -29.4375 12.75 C-30 9.5625 -30 9.5625 -29.4375 5.75 C-21.596101 -2.66237466 -10.35688659 -4.9792724 0 0 Z " fill="#0E1A2C" transform="translate(460.4375,275.25)"/>
<path d="M0 0 C3.38450374 2.0137444 6.15640411 4.15449914 8.5625 7.3125 C9 10.5 9 10.5 8.5625 13.3125 C6.5625 15.3125 6.5625 15.3125 4.375 15.75 C1.34095276 15.2780371 0.61042948 14.69456289 -1.6875 12.8125 C-5.20977222 10.12485315 -7.85117671 9.64019351 -12.23828125 9.87109375 C-14.57141327 10.3393778 -16.10730289 11.06981238 -18.125 12.3125 C-21.67650565 14.4568053 -23.37703617 14.87907635 -27.4375 14.3125 C-29.4375 12.3125 -29.4375 12.3125 -30.0625 9.5625 C-29.2190362 5.17648822 -27.22016604 4.09244683 -23.67578125 1.609375 C-16.44957519 -2.57753672 -7.73855907 -3.6338861 0 0 Z " fill="#0D1F33" transform="translate(557.4375,274.6875)"/>
<path d="M0 0 C0.88494141 -0.01224609 1.76988281 -0.02449219 2.68164062 -0.03710938 C3.52791016 -0.03904297 4.37417969 -0.04097656 5.24609375 -0.04296875 C6.02525146 -0.04707764 6.80440918 -0.05118652 7.60717773 -0.05541992 C9.5625 0.1875 9.5625 0.1875 11.5625 2.1875 C11.80859566 4.24521065 11.80859566 4.24521065 11.80300903 6.83181763 C11.80575836 7.81060883 11.80850769 8.78940002 11.81134033 9.79785156 C11.80414978 10.87534668 11.79695923 11.9528418 11.78955078 13.06298828 C11.78984283 14.19469452 11.79013489 15.32640076 11.79043579 16.49240112 C11.78903812 20.2476152 11.77345626 24.00263292 11.7578125 27.7578125 C11.75408393 30.35570162 11.75123622 32.95359213 11.74923706 35.55148315 C11.74237089 41.6996659 11.72659462 47.84776713 11.70653808 53.99591911 C11.68420136 60.99461315 11.67319127 67.99331054 11.66314721 74.99203134 C11.64222897 89.39055902 11.60703909 103.78902699 11.5625 118.1875 C10.5725 118.6825 10.5725 118.6825 9.5625 119.1875 C9.5625 80.5775 9.5625 41.9675 9.5625 2.1875 C1.1475 2.6825 1.1475 2.6825 -7.4375 3.1875 C-7.7675 41.1375 -8.0975 79.0875 -8.4375 118.1875 C-8.7675 118.1875 -9.0975 118.1875 -9.4375 118.1875 C-9.59126464 102.94992166 -9.73930153 87.7122952 -9.8804636 72.47459507 C-9.94613767 65.39994464 -10.01370719 58.32532167 -10.08569336 51.25073242 C-10.15509373 44.42975023 -10.21927225 37.60873515 -10.28019524 30.78767204 C-10.30436382 28.1788153 -10.33031424 25.56997446 -10.35803413 22.96115303 C-10.39641261 19.32121395 -10.42858701 15.681271 -10.45922852 12.04125977 C-10.47217453 10.95081863 -10.48512054 9.8603775 -10.49845886 8.7368927 C-10.50549835 7.75106201 -10.51253784 6.76523132 -10.51979065 5.74952698 C-10.52808679 4.88765054 -10.53638292 4.0257741 -10.54493046 3.13778019 C-10.27511361 -1.76044391 -3.71754783 0.00269583 0 0 Z " fill="#293640" transform="translate(167.4375,592.8125)"/>
<path d="M0 0 C2.43696189 0.88039219 3.5964157 1.98925701 5.41015625 3.8203125 C8.17460779 6.29408136 8.92128068 6.73389717 12.78515625 7.2578125 C15.80200381 6.80243928 17.47029668 6.15907094 20.09765625 4.7578125 C22.72265625 4.5078125 22.72265625 4.5078125 25.09765625 4.7578125 C27.09765625 6.7578125 27.09765625 6.7578125 27.47265625 9.6328125 C27.09765625 12.7578125 27.09765625 12.7578125 25.41015625 15.0078125 C19.82164775 19.23695406 13.89009921 19.69010859 7.09765625 18.7578125 C2.0682829 16.73603783 -2.14792303 13.46328123 -4.90234375 8.7578125 C-5.36661404 5.44159611 -5.4820524 3.65636091 -3.65234375 0.8203125 C-1.90234375 -0.2421875 -1.90234375 -0.2421875 0 0 Z " fill="#0E2033" transform="translate(484.90234375,323.2421875)"/>
<path d="M0 0 C1.69155601 3.38311202 0.2659334 7.07773784 -0.375 10.6875 C-1.80320031 19.13345614 -2.62907231 27.4430819 -3 36 C-7.19637758 34.35793921 -10.02397771 31.27129269 -13.125 28.125 C-13.66253906 27.59519531 -14.20007813 27.06539063 -14.75390625 26.51953125 C-17.42842431 23.83167395 -19.42485203 21.43576264 -21 18 C-18.81724145 15.93228282 -16.62906994 13.87084381 -14.4375 11.8125 C-13.82841797 11.23435547 -13.21933594 10.65621094 -12.59179688 10.06054688 C-8.6027738 6.32479511 -4.51306456 3.08421786 0 0 Z " fill="#F6B531" transform="translate(372,454)"/>
<path d="M0 0 C4.04665201 1.69187651 7.15034764 4.4836706 10.4375 7.3125 C10.99759766 7.78623047 11.55769531 8.25996094 12.13476562 8.74804688 C15.58507684 11.6910778 18.83502791 14.75220621 22 18 C20.35009794 22.29597139 17.18257193 25.00517646 13.9375 28.125 C9.9955106 31.69553366 9.9955106 31.69553366 7 36 C6.34 36 5.68 36 5 36 C4.88406494 35.08710205 4.76812988 34.1742041 4.64868164 33.23364258 C4.21585632 29.83225419 3.78143578 26.43107733 3.34594727 23.0300293 C3.15813702 21.56070938 2.97095464 20.09130906 2.78442383 18.62182617 C2.51550468 16.5041775 2.24429541 14.38683253 1.97265625 12.26953125 C1.72914429 10.36071167 1.72914429 10.36071167 1.48071289 8.41333008 C1.08132914 5.57748232 0.60090479 2.79876669 0 0 Z " fill="#F5B333" transform="translate(628,454)"/>
<path d="M0 0 C0.99 0 1.98 0 3 0 C3 0.66 3 1.32 3 2 C3.6290625 1.94199219 4.258125 1.88398438 4.90625 1.82421875 C12.68400049 1.41424696 16.94295846 3.50694181 22.7421875 8.5 C23.15726562 8.995 23.57234375 9.49 24 10 C23.6875 12.6875 23.6875 12.6875 23 15 C22.01 15.33 21.02 15.66 20 16 C18.125 15.0390625 18.125 15.0390625 16 13.625 C10.79156045 10.52739427 5.9714497 10.12277747 0 10 C0 6.66666667 0 3.33333333 0 0 Z " fill="#0E283C" transform="translate(444,273)"/>
<path d="M0 0 C0 0.33 0 0.66 0 1 C-0.76183594 1.14695312 -1.52367187 1.29390625 -2.30859375 1.4453125 C-9.29916161 2.96386282 -15.86539771 4.73892968 -21 10 C-21.83752425 13.21717469 -21.83752425 13.21717469 -21 16 C-19.92250591 17.28368063 -19.92250591 17.28368063 -17.375 17.3125 C-13.75357242 16.97718263 -11.95650229 15.78157095 -8.91796875 13.91015625 C-5.33723227 12.21094729 -1.83784792 12.17663192 2 13 C3.98154036 14.14533033 5.66725207 15.43238421 7.4375 16.87890625 C9.06054383 18.22019541 9.06054383 18.22019541 11.75 18.4375 C14.2720148 18.09721004 14.2720148 18.09721004 17 16 C16.3125 17.9375 16.3125 17.9375 15 20 C12.875 21 12.875 21 10 21 C7.93076182 20.08270885 5.98044652 19.01751794 3.99609375 17.9296875 C1.23943604 16.64576473 -1.01175806 16.64425691 -4 17 C-4.66 17.33 -5.32 17.66 -6 18 C-6.969375 17.979375 -7.93875 17.95875 -8.9375 17.9375 C-12.17601934 17.72907405 -12.17601934 17.72907405 -15 20 C-18.42318917 19.85736712 -20.32879221 19.58460033 -22.9375 17.3125 C-24 15 -24 15 -24.1875 12.125 C-22.15278075 6.77047566 -17.78036803 4.24976138 -12.6796875 1.95703125 C-8.36965612 0.40103687 -4.62613983 -0.35585691 0 0 Z " fill="#F2D492" transform="translate(550,271)"/>
<path d="M0 0 C1.51837413 4.55512239 -0.55717518 7.81136495 -2.1875 12.1875 C-3.30056954 15.04346092 -3.30056954 15.04346092 -2 18 C1.1108154 17.34608221 1.1108154 17.34608221 2.0625 15 C2.371875 14.34 2.68125 13.68 3 13 C3.66 12.67 4.32 12.34 5 12 C5.33 12.99 5.66 13.98 6 15 C5.48050781 15.52207031 4.96101563 16.04414063 4.42578125 16.58203125 C-0.92894776 22.23369533 -4.18484105 27.75908635 -7 35 C-7.99 35 -8.98 35 -10 35 C-8.81072634 23.27715965 -5.27757985 10.55515971 0 0 Z " fill="#F0CD8E" transform="translate(417,238)"/>
<path d="M0 0 C8.58 0 17.16 0 26 0 C26.66 8.58 27.32 17.16 28 26 C28.33 26 28.66 26 29 26 C29 32.6 29 39.2 29 46 C28.34 46 27.68 46 27 46 C26.67 47.32 26.34 48.64 26 50 C25.38833521 33.65911494 24.86593951 17.35537963 25 1 C16.75 1 8.5 1 0 1 C0 0.67 0 0.34 0 0 Z " fill="#1B3346" transform="translate(908,595)"/>
<path d="M0 0 C4.00679988 2.00339994 7.07762569 4.42108817 10.4375 7.3125 C10.99759766 7.78623047 11.55769531 8.25996094 12.13476562 8.74804688 C15.58507684 11.6910778 18.83502791 14.75220621 22 18 C20.4169423 22.2742558 17.49431596 24.26531794 14 27 C15.29299694 24.11562221 16.65941363 22.12780579 19 20 C17.5724411 16.69831248 15.84483943 14.60095359 13.1875 12.1875 C12.18783203 11.24970703 12.18783203 11.24970703 11.16796875 10.29296875 C9.02057867 8.71728829 9.02057867 8.71728829 6.23828125 9.30078125 C5.49964844 9.53152344 4.76101563 9.76226562 4 10 C4.165 10.66 4.33 11.32 4.5 12 C5.12183299 15.73099794 5.06408926 19.21873378 5 23 C4.67 23 4.34 23 4 23 C2.68 15.41 1.36 7.82 0 0 Z " fill="#EFDD28" transform="translate(628,454)"/>
<path d="M0 0 C1.3125 0.29166667 2.625 0.58333333 3.9375 0.875 C4.76121094 1.05675781 5.58492188 1.23851562 6.43359375 1.42578125 C8.05306243 1.78812812 9.67059692 2.15933841 11.28515625 2.54296875 C15.84705265 3.61304321 20.28087571 4.3155465 24.95703125 4.65625 C27 5 27 5 28.81616211 5.96826172 C31.2558941 7.1208953 33.31403848 7.49334662 35.984375 7.8515625 C36.91894531 7.98046875 37.85351562 8.109375 38.81640625 8.2421875 C40.26853516 8.43167969 40.26853516 8.43167969 41.75 8.625 C43.22533203 8.82609375 43.22533203 8.82609375 44.73046875 9.03125 C47.15286456 9.36050768 49.57595084 9.68318477 52 10 C52 10.33 52 10.66 52 11 C37.28083627 12.11791117 22.24533744 8.43642296 8.1875 4.375 C7.47053955 4.16915283 6.7535791 3.96330566 6.01489258 3.7512207 C4.32161564 3.23361506 2.65657051 2.62520119 1 2 C0.67 1.34 0.34 0.68 0 0 Z " fill="#0D151E" transform="translate(435,543)"/>
<path d="M0 0 C4.68426609 3.55358117 5.87262444 8.45707015 7 14 C7.04621431 15.66602581 7.05959216 17.33439904 7 19 C6.34 19 5.68 19 5 19 C4.34 19.66 3.68 20.32 3 21 C1.94595055 17.01803543 2.15901344 14.01804691 3 10 C0.81907964 12.07858979 -0.96390469 14.21856618 -2.6875 16.6875 C-3.12449219 17.31011719 -3.56148437 17.93273437 -4.01171875 18.57421875 C-4.50091797 19.27998047 -4.50091797 19.27998047 -5 20 C-5 16.82510401 -4.59181716 16.02001117 -3.0625 13.375 C-0.75389782 8.98620857 -0.22715703 4.9065919 0 0 Z " fill="#F1C92C" transform="translate(566,433)"/>
<path d="M0 0 C0.33 0 0.66 0 1 0 C1.14695312 0.85271484 1.14695312 0.85271484 1.296875 1.72265625 C2.09812763 5.86015903 2.98015443 9.31714775 5.1875 12.9375 C5.785625 13.948125 6.38375 14.95875 7 16 C6.67 16.66 6.34 17.32 6 18 C5.20773051 16.89626579 4.41621065 15.79199348 3.625 14.6875 C3.18414062 14.07261719 2.74328125 13.45773437 2.2890625 12.82421875 C1.16589093 11.2347608 0.07958553 9.61937829 -1 8 C-2.98 16.25 -4.96 24.5 -7 33 C-7.33 33 -7.66 33 -8 33 C-8.30334542 26.97408421 -7.19510404 21.75624684 -5.6875 15.9375 C-5.47416016 15.06544922 -5.26082031 14.19339844 -5.04101562 13.29492188 C-3.83261852 8.5298694 -2.42003872 4.32200464 0 0 Z " fill="#EDD829" transform="translate(433,434)"/>
<path d="M0 0 C1.68946048 3.23388807 2.58854288 6.17855945 3.375 9.75 C4.62931073 15.01810508 6.48518305 19.23051958 9 24 C9 24.99 9 25.98 9 27 C7.68 26.34 6.36 25.68 5 25 C5 26.98 5 28.96 5 31 C2.57381571 27.065362 2.09716236 22.7965387 1.375 18.3125 C1.2409375 17.54744141 1.106875 16.78238281 0.96875 15.99414062 C0.07819348 10.6008213 -0.11987282 5.46511088 0 0 Z " fill="#F3D392" transform="translate(407,284)"/>
<path d="M0 0 C2.84036926 1.42018463 3.04205964 3.11105899 4.20703125 6.0390625 C4.62678223 7.08803711 5.0465332 8.13701172 5.47900391 9.21777344 C5.91905762 10.3421582 6.35911133 11.46654297 6.8125 12.625 C7.26028809 13.75969727 7.70807617 14.89439453 8.16943359 16.06347656 C17.35904123 39.53725787 17.35904123 39.53725787 17 46 C14.26557441 41.89836161 13.33274825 37.55261686 12 32.8359375 C11.32433586 29.87266717 11.32433586 29.87266717 9 29 C8.5078125 27.21484375 8.5078125 27.21484375 8.125 24.9375 C7.30909377 20.87081775 5.96536323 17.6873736 4.01953125 14.05078125 C1.82219258 9.63084714 0 4.95714363 0 0 Z " fill="#EFD996" transform="translate(574,222)"/>
<path d="M0 0 C0.33 0 0.66 0 1 0 C1 6.6 1 13.2 1 20 C6.28 20 11.56 20 17 20 C17 15.05 17 10.1 17 5 C17.33 5 17.66 5 18 5 C18 10.28 18 15.56 18 21 C12.06 21 6.12 21 0 21 C-2.27682737 13.0311042 -2.27682737 13.0311042 -2.25 8.8125 C-2.25515625 7.99394531 -2.2603125 7.17539062 -2.265625 6.33203125 C-1.97948203 3.81986427 -1.25942701 2.17401092 0 0 Z " fill="#163043" transform="translate(833,691)"/>
<path d="M0 0 C1.00160156 0.54269531 2.00320313 1.08539063 3.03515625 1.64453125 C4.37752056 2.3673428 5.71997321 3.08999029 7.0625 3.8125 C7.71927734 4.16892578 8.37605469 4.52535156 9.05273438 4.89257812 C13.28943192 7.16745513 17.55370596 9.16713237 22 11 C18.0979963 12.3006679 17.0573197 11.34107985 13.4375 9.5625 C9.8702914 7.65104825 9.8702914 7.65104825 6 7 C5.01 8.485 5.01 8.485 4 10 C2.68 9.67 1.36 9.34 0 9 C0 6.03 0 3.06 0 0 Z " fill="#F0B05D" transform="translate(458,407)"/>
<path d="M0 0 C0.66 0.33 1.32 0.66 2 1 C2 1.66 2 2.32 2 3 C2.31802943 4.66965451 2.64984951 6.33678518 3 8 C2.01 7.67 1.02 7.34 0 7 C2.50346649 11.85967024 6.08552441 15.27856704 10 19 C9.67 19.66 9.34 20.32 9 21 C7.03536981 19.0894422 5.07833599 17.17204686 3.125 15.25 C2.56941406 14.71117187 2.01382812 14.17234375 1.44140625 13.6171875 C-3.60871292 8.62791314 -3.60871292 8.62791314 -5 5 C-3.35 3.35 -1.7 1.7 0 0 Z " fill="#F1CF2B" transform="translate(356,467)"/>
<path d="M0 0 C0.33 0 0.66 0 1 0 C1.14973506 9.71614177 0.69613269 19.31629705 0 29 C-3.90669429 27.56171454 -6.19713709 26.11429212 -9 23 C-7.68 22.67 -6.36 22.34 -5 22 C-5 22.66 -5 23.32 -5 24 C-4.34 24 -3.68 24 -3 24 C-2.07452815 21.22358445 -1.72791858 19.00710436 -1.46484375 16.11328125 C-1.37783203 15.17548828 -1.29082031 14.23769531 -1.20117188 13.27148438 C-1.11416016 12.29501953 -1.02714844 11.31855469 -0.9375 10.3125 C-0.84662109 9.32443359 -0.75574219 8.33636719 -0.66210938 7.31835938 C-0.43822321 4.87917852 -0.21764761 2.43974413 0 0 Z " fill="#1675B8" transform="translate(406,488)"/>
<path d="M0 0 C2.17854707 3.2678206 3.49760034 6.38058265 5 10 C5.33 10 5.66 10 6 10 C6.33 12.31 6.66 14.62 7 17 C5.68 17 4.36 17 3 17 C1 12 -1 7 -3 2 C-2.01 1.34 -1.02 0.68 0 0 Z " fill="#F2C98D" transform="translate(586,256)"/>
<path d="M0 0 C2 1 2 1 2.74609375 2.65820312 C3.08833984 3.70911133 3.08833984 3.70911133 3.4375 4.78125 C3.69273437 5.54050781 3.94796875 6.29976562 4.2109375 7.08203125 C4.73697917 8.69401042 5.26302083 10.30598958 5.7890625 11.91796875 C6.17191406 13.05685547 6.17191406 13.05685547 6.5625 14.21875 C6.79066406 14.91935547 7.01882813 15.61996094 7.25390625 16.34179688 C7.88185786 18.20433088 7.88185786 18.20433088 10 19 C11.65 15.04 13.3 11.08 15 7 C16.30609191 10.91827573 15.34814961 12.25261472 13.75 16 C13.31171875 17.051875 12.8734375 18.10375 12.421875 19.1875 C11.12863764 21.74555192 10.04356567 23.08230101 8 25 C6.66165014 21.21008507 5.33017337 17.41779164 4 13.625 C3.6184375 12.54476562 3.236875 11.46453125 2.84375 10.3515625 C2.4828125 9.3203125 2.121875 8.2890625 1.75 7.2265625 C1.41484375 6.27346191 1.0796875 5.32036133 0.734375 4.33837891 C0 2 0 2 0 0 Z " fill="#6E4134" transform="translate(596,238)"/>
<path d="M0 0 C0.33 0 0.66 0 1 0 C1 14.52 1 29.04 1 44 C-1.6855594 41.3144406 -2.06049974 38.62378672 -3 35 C-2.34 35 -1.68 35 -1 35 C-0.67 23.45 -0.34 11.9 0 0 Z " fill="#C2C9CE" transform="translate(249,626)"/>
<path d="M0 0 C0.33 0 0.66 0 1 0 C1 9.9 1 19.8 1 30 C-2 27 -2 27 -2.37231445 24.50390625 C-2.3693335 23.53324219 -2.36635254 22.56257813 -2.36328125 21.5625 C-2.36263672 20.50289063 -2.36199219 19.44328125 -2.36132812 18.3515625 C-2.34521484 17.24554688 -2.32910156 16.13953125 -2.3125 15 C-2.31572266 13.89398438 -2.31894531 12.78796875 -2.32226562 11.6484375 C-2.26707949 3.40061924 -2.26707949 3.40061924 0 0 Z " fill="#EEEDEC" transform="translate(304,327)"/>
<path d="M0 0 C0.66 0 1.32 0 2 0 C3.32 6.27 4.64 12.54 6 19 C4.68 17.68 3.36 16.36 2 15 C1.34 15.99 0.68 16.98 0 18 C0 12.06 0 6.12 0 0 Z " fill="#CFD3D5" transform="translate(854,627)"/>
<path d="M0 0 C2.30694043 3.46041065 2.62056512 5.90210331 3 10 C2 11 2 11 -0.04125977 11.11352539 C-0.91580811 11.10828857 -1.79035645 11.10305176 -2.69140625 11.09765625 C-3.63564453 11.09443359 -4.57988281 11.09121094 -5.55273438 11.08789062 C-6.54595703 11.07951172 -7.53917969 11.07113281 -8.5625 11.0625 C-9.55958984 11.05798828 -10.55667969 11.05347656 -11.58398438 11.04882812 C-14.05604849 11.03700007 -16.52799518 11.02051849 -19 11 C-18.67 10.34 -18.34 9.68 -18 9 C-11.73 9 -5.46 9 1 9 C0.67 6.03 0.34 3.06 0 0 Z " fill="#010715" transform="translate(506,660)"/>
<path d="M0 0 C-3.14333795 7.04593628 -9.24488157 10.43277935 -16.08203125 13.43359375 C-18 14 -18 14 -20 13 C-19.20335937 12.48050781 -18.40671875 11.96101563 -17.5859375 11.42578125 C-10.76679119 7.00236883 -10.76679119 7.00236883 -4.375 2 C-2 0 -2 0 0 0 Z " fill="#FAC989" transform="translate(487,310)"/>
<path d="M0 0 C0.66 0 1.32 0 2 0 C1.88588196 2.75084547 1.75914051 5.50011947 1.625 8.25 C1.5940625 9.02730469 1.563125 9.80460937 1.53125 10.60546875 C1.16618114 17.72431144 1.16618114 17.72431144 -1 21 C-1.33 20.01 -1.66 19.02 -2 18 C-3.485 20.475 -3.485 20.475 -5 23 C-5.33 22.34 -5.66 21.68 -6 21 C-5.29296875 19.00390625 -5.29296875 19.00390625 -4.1875 16.5625 C-1.90066689 11.14215164 -0.83832717 5.80210646 0 0 Z " fill="#EDDB9E" transform="translate(591,284)"/>
<path d="M0 0 C2.30232826 3.8038467 2.87840421 7.93802837 3.625 12.25 C3.7590625 12.99507812 3.893125 13.74015625 4.03125 14.5078125 C4.35966676 16.337563 4.6805798 18.16865754 5 20 C4.34 20 3.68 20 3 20 C2.87625 19.030625 2.7525 18.06125 2.625 17.0625 C2.315625 15.5465625 2.315625 15.5465625 2 14 C1.34 13.67 0.68 13.34 0 13 C0 11.68 0 10.36 0 9 C-0.66 10.32 -1.32 11.64 -2 13 C-3.35068317 10.29863366 -2.73985317 8.86436954 -2.125 5.9375 C-1.94195312 5.03902344 -1.75890625 4.14054688 -1.5703125 3.21484375 C-1 1 -1 1 0 0 Z " fill="#EAEDED" transform="translate(497,624)"/>
<path d="M0 0 C0.33 0.66 0.66 1.32 1 2 C0.34 1.67 -0.32 1.34 -1 1 C-0.67 0.67 -0.34 0.34 0 0 Z M-4 3 C-3.34 3.33 -2.68 3.66 -2 4 C-3.32 5.32 -4.64 6.64 -6 8 C-6.66 7.67 -7.32 7.34 -8 7 C-6.68 5.68 -5.36 4.36 -4 3 Z M-12 10 C-11.01 10.33 -10.02 10.66 -9 11 C-10.32 11.99 -11.64 12.98 -13 14 C-13.66 13.67 -14.32 13.34 -15 13 C-14.01 12.01 -13.02 11.02 -12 10 Z M-17 14 C-16.34 14.33 -15.68 14.66 -15 15 C-15.99 15.99 -16.98 16.98 -18 18 C-18 15 -18 15 -17 14 Z M-21 17 C-20.34 17.33 -19.68 17.66 -19 18 C-19.99 18 -20.98 18 -22 18 C-21.67 17.67 -21.34 17.34 -21 17 Z M-24 19 C-23.34 19.33 -22.68 19.66 -22 20 C-23.98 21.32 -25.96 22.64 -28 24 C-27 21 -27 21 -24 19 Z " fill="#F2F3F3" transform="translate(644,498)"/>
<path d="M0 0 C2.8958335 2.8958335 3.24564822 6.37433844 4.125 10.25 C4.30675781 11.00152344 4.48851562 11.75304687 4.67578125 12.52734375 C5.66033203 16.769055 6.2095133 20.61418833 6 25 C3 23 3 23 2.3046875 19.8046875 C2.16289062 18.50789062 2.02109375 17.21109375 1.875 15.875 C1.75825928 14.86264282 1.75825928 14.86264282 1.63916016 13.82983398 C1.41622318 11.88766504 1.20777019 9.94384996 1 8 C0.79565955 6.35366616 0.5884288 4.70768032 0.375 3.0625 C0.25125 2.051875 0.1275 1.04125 0 0 Z " fill="#0F1922" transform="translate(359,688)"/>
<path d="M0 0 C0.33 0 0.66 0 1 0 C1.33 5.94 1.66 11.88 2 18 C-1.78449552 16.73850149 -2.13176857 15.41155305 -4 12 C-4.66 11.01 -5.32 10.02 -6 9 C-4.02 9.99 -4.02 9.99 -2 11 C-2 9.35 -2 7.7 -2 6 C-1.34 6 -0.68 6 0 6 C0 4.02 0 2.04 0 0 Z " fill="#F3AC32" transform="translate(367,472)"/>
<path d="M0 0 C0 3 0 3 -2 5.1875 C-2.66 5.785625 -3.32 6.38375 -4 7 C-3.67 7.99 -3.34 8.98 -3 10 C-4.78810766 10.69670416 -6.58062052 11.38211189 -8.375 12.0625 C-9.37273438 12.44535156 -10.37046875 12.82820313 -11.3984375 13.22265625 C-14 14 -14 14 -16 13 C-15.18015625 12.39671875 -14.3603125 11.7934375 -13.515625 11.171875 C-12.42695443 10.36475717 -11.33841997 9.55745574 -10.25 8.75 C-9.44175781 8.15638672 -9.44175781 8.15638672 -8.6171875 7.55078125 C-5.49794307 5.23036771 -2.67031761 2.82587009 0 0 Z " fill="#F5CF2B" transform="translate(559,453)"/>
<path d="M0 0 C1.23007212 2.46014424 0.92733266 3.42388198 0.4765625 6.10546875 C0.3425 6.92466797 0.2084375 7.74386719 0.0703125 8.58789062 C-0.07664062 9.44576172 -0.22359375 10.30363281 -0.375 11.1875 C-0.65407634 12.86841816 -0.93272895 14.54940674 -1.2109375 16.23046875 C-1.3459668 17.03661621 -1.48099609 17.84276367 -1.62011719 18.67333984 C-2.12677747 21.77647124 -2.57010653 24.88537963 -3 28 C-3.33 28 -3.66 28 -4 28 C-4.1567564 20.28410183 -3.67453101 12.68483539 -3 5 C-3.99 5.66 -4.98 6.32 -6 7 C-4.60667426 3.63279613 -3.0210714 2.0140476 0 0 Z " fill="#F6E027" transform="translate(372,454)"/>
<path d="M0 0 C0.33 0 0.66 0 1 0 C1 8.25 1 16.5 1 25 C0.67 25 0.34 25 0 25 C-2.23290955 17.88260081 -3.98927555 8.68244859 -0.984375 1.609375 C-0.65953125 1.07828125 -0.3346875 0.5471875 0 0 Z " fill="#213445" transform="translate(836,612)"/>
<path d="M0 0 C2.4375 0.75 2.4375 0.75 5 2 C5.8125 4.125 5.8125 4.125 6 6 C4.68 6 3.36 6 2 6 C2.165 6.66 2.33 7.32 2.5 8 C3.12183299 11.73099794 3.06408926 15.21873378 3 19 C2.67 19 2.34 19 2 19 C0.82706111 12.6221448 -0.29530838 6.49678438 0 0 Z " fill="#F7CB2B" transform="translate(630,458)"/>
<path d="M0 0 C-5.60252631 2.47804048 -10.00084054 4.13371604 -16.203125 4.09765625 C-17.1828125 4.09443359 -18.1625 4.09121094 -19.171875 4.08789062 C-20.18765625 4.07951172 -21.2034375 4.07113281 -22.25 4.0625 C-23.796875 4.05573242 -23.796875 4.05573242 -25.375 4.04882812 C-27.91672573 4.03706088 -30.45833319 4.02062011 -33 4 C-33 3.67 -33 3.34 -33 3 C-32.44127197 2.9498877 -31.88254395 2.89977539 -31.30688477 2.84814453 C-28.72483727 2.61309799 -26.14370726 2.36909441 -23.5625 2.125 C-22.24475586 2.00705078 -22.24475586 2.00705078 -20.90039062 1.88671875 C-15.7911126 1.39652971 -10.94761592 0.63797934 -5.98803711 -0.69970703 C-3.71720007 -1.04271692 -2.17204063 -0.69006749 0 0 Z " fill="#EFB27A" transform="translate(527,457)"/>
<path d="M0 0 C2.95813066 4.43719599 3.1143157 7.45411417 3.0625 12.6875 C3.05347656 13.86699219 3.04445313 15.04648437 3.03515625 16.26171875 C3.02355469 17.16535156 3.01195312 18.06898438 3 19 C2.01 18.34 1.02 17.68 0 17 C-0.41172186 14.24440444 -0.6490261 11.70466569 -0.75 8.9375 C-0.79253906 8.19177734 -0.83507812 7.44605469 -0.87890625 6.67773438 C-0.97163988 4.78699861 -0.99161466 2.89298995 -1 1 C-0.67 0.67 -0.34 0.34 0 0 Z " fill="#EBECEC" transform="translate(422,620)"/>
<path d="M0 0 C0.33 0 0.66 0 1 0 C1.7230444 7.10993658 1.7230444 7.10993658 -0.3359375 9.64453125 C-2 11 -2 11 -5 13 C-5.66 12.67 -6.32 12.34 -7 12 C-6.01 10.68 -5.02 9.36 -4 8 C-4.66 6.68 -5.32 5.36 -6 4 C-5.34 4 -4.68 4 -4 4 C-2.64631404 2.68733482 -1.31200404 1.35432675 0 0 Z " fill="#E6904E" transform="translate(541,408)"/>
<path d="M0 0 C0.66 0.33 1.32 0.66 2 1 C1.3503125 2.2065625 1.3503125 2.2065625 0.6875 3.4375 C-1.25251495 7.53308712 -2.64718382 11.68250154 -4 16 C-4.66 16 -5.32 16 -6 16 C-6.66 17.32 -7.32 18.64 -8 20 C-7.45318976 14.99399078 -5.75859667 11.02818933 -3.4375 6.625 C-3.10814453 5.98433594 -2.77878906 5.34367188 -2.43945312 4.68359375 C-1.63360518 3.11861368 -0.81781507 1.55875979 0 0 Z " fill="#0F1821" transform="translate(313,244)"/>
<path d="M0 0 C0.66 0.33 1.32 0.66 2 1 C1.01 1.33 0.02 1.66 -1 2 C-1 2.99 -1 3.98 -1 5 C-5.22857143 9 -5.22857143 9 -9 9 C-9.28875 9.804375 -9.5775 10.60875 -9.875 11.4375 C-11 14 -11 14 -13 15 C-11.18776901 9.01963774 -7.22907862 4.62114808 -2.25 1 C-1.5075 0.67 -0.765 0.34 0 0 Z " fill="#0C1621" transform="translate(755,596)"/>
<path d="M0 0 C1.40378906 -0.00386719 1.40378906 -0.00386719 2.8359375 -0.0078125 C5.53229747 0.12058559 7.99771509 0.52311291 10.625 1.125 C10.625 1.455 10.625 1.785 10.625 2.125 C4.685 2.62 4.685 2.62 -1.375 3.125 C-0.385 4.61 -0.385 4.61 0.625 6.125 C-2.83425163 4.8758258 -5.52193203 3.44972205 -8.375 1.125 C-5.32083187 0.10694396 -3.19563039 -0.00875515 0 0 Z " fill="#1775B6" transform="translate(576.375,417.875)"/>
<path d="M0 0 C1.32 0.66 2.64 1.32 4 2 C3.88541307 3.43836751 3.75790884 4.87570966 3.625 6.3125 C3.55539062 7.11300781 3.48578125 7.91351562 3.4140625 8.73828125 C3 11 3 11 1 14 C-0.512545 8.83955235 -1.33500455 5.34001821 0 0 Z " fill="#F1F1F1" transform="translate(884,663)"/>
<path d="M0 0 C3.184499 1.5922495 3.54842508 4.86094144 4.625 8.0625 C4.85445312 8.72572266 5.08390625 9.38894531 5.3203125 10.07226562 C5.88675776 11.71259669 6.44422923 13.35602157 7 15 C6.01 15 5.02 15 4 15 C3.34 15.66 2.68 16.32 2 17 C1.34 11.39 0.68 5.78 0 0 Z " fill="#F1F1F0" transform="translate(571,639)"/>
<path d="M0 0 C0.66 0 1.32 0 2 0 C2.66 3.96 3.32 7.92 4 12 C3.01 11.67 2.02 11.34 1 11 C0.01 11.33 -0.98 11.66 -2 12 C-1.34 8.04 -0.68 4.08 0 0 Z " fill="#E7E8EA" transform="translate(323,624)"/>
<path d="M0 0 C0 0.33 0 0.66 0 1 C-0.94875 1.12375 -1.8975 1.2475 -2.875 1.375 C-6.08667191 1.71687177 -6.08667191 1.71687177 -8 4 C-8 3.34 -8 2.68 -8 2 C-15.26 2 -22.52 2 -30 2 C-30 1.67 -30 1.34 -30 1 C-19.99112106 0.37722531 -10.03411669 -0.17707265 0 0 Z " fill="#02233D" transform="translate(482,207)"/>
<path d="M0 0 C1.12894876 0.93274109 2.25300876 1.87140122 3.375 2.8125 C4.00148438 3.33457031 4.62796875 3.85664063 5.2734375 4.39453125 C7 6 7 6 9 9 C7.03533587 10.06775224 5.03144641 11.06553465 3 12 C2.34 11.67 1.68 11.34 1 11 C1.33 9.35 1.66 7.7 2 6 C2.66 6 3.32 6 4 6 C3.34 5.38125 2.68 4.7625 2 4.125 C0 2 0 2 0 0 Z " fill="#F8CA2E" transform="translate(440,452)"/>
<path d="M0 0 C0.61875 0.639375 1.2375 1.27875 1.875 1.9375 C3.82597612 4.03883584 3.82597612 4.03883584 6 5 C2.04 6.98 2.04 6.98 -2 9 C-3.10102197 5.69693408 -2.95067299 4.28414305 -2 1 C-1.34 0.67 -0.68 0.34 0 0 Z " fill="#EFCD90" transform="translate(603,315)"/>
<path d="M0 0 C0 0.99 0 1.98 0 3 C-12.87 2.505 -12.87 2.505 -26 2 C-26 1.67 -26 1.34 -26 1 C-22.9792807 0.83100871 -19.95845177 0.66473871 -16.9375 0.5 C-16.08994141 0.45230469 -15.24238281 0.40460938 -14.36914062 0.35546875 C-9.57055312 0.09608564 -4.80550212 -0.05216285 0 0 Z " fill="#172D40" transform="translate(479,218)"/>
<path d="M0 0 C0.66 0 1.32 0 2 0 C1.77938101 3.86083225 1.11427194 4.89588557 -1.8125 7.5625 C-2.61494141 8.17351562 -2.61494141 8.17351562 -3.43359375 8.796875 C-5.46934808 10.36049678 -7.22195497 12.15356862 -9 14 C-7.65686815 10.21908383 -5.97035316 7.34348084 -3.5 4.1875 C-2.8915625 3.39730469 -2.283125 2.60710937 -1.65625 1.79296875 C-0.83640625 0.90544922 -0.83640625 0.90544922 0 0 Z " fill="#0C1923" transform="translate(337,207)"/>
<path d="M0 0 C0.66 0 1.32 0 2 0 C3.60218232 4.80654697 2.16943023 7.57769992 0 12 C-0.33 12.66 -0.66 13.32 -1 14 C-1.66 14 -2.32 14 -3 14 C-2.01 9.38 -1.02 4.76 0 0 Z " fill="#F2F2F2" transform="translate(908,656)"/>
<path d="M0 0 C7.03482474 -0.23668569 13.1834265 0.2120463 20 2 C20 2.33 20 2.66 20 3 C17.22858283 3.08089542 14.45952181 3.14044062 11.6875 3.1875 C10.90181641 3.21263672 10.11613281 3.23777344 9.30664062 3.26367188 C8.54931641 3.27333984 7.79199219 3.28300781 7.01171875 3.29296875 C6.31522217 3.3086792 5.61872559 3.32438965 4.90112305 3.34057617 C2.45510217 2.90238443 1.57297914 1.86562642 0 0 Z " fill="#060D15" transform="translate(575,406)"/>
<path d="M0 0 C0.66 0 1.32 0 2 0 C1.67 4.62 1.34 9.24 1 14 C-0.32 14.33 -1.64 14.66 -3 15 C-2.01 10.05 -1.02 5.1 0 0 Z " fill="#E7E9EA" transform="translate(915,627)"/>
<path d="M0 0 C1.98497167 3.42323503 2.63032282 6.67181257 3.25 10.5625 C3.44078125 11.69816406 3.6315625 12.83382813 3.828125 14.00390625 C4 17 4 17 2 20 C0.57997892 13.2168636 -0.22731216 6.93302093 0 0 Z " fill="#EBE0AB" transform="translate(407,284)"/>
<path d="M0 0 C0 3.63 0 7.26 0 11 C-3.875 7.25 -3.875 7.25 -5 5 C-4.75 2.9375 -4.75 2.9375 -4 1 C-1 0 -1 0 0 0 Z " fill="#F6F4F2" transform="translate(915,643)"/>
<path d="M0 0 C0.33 0 0.66 0 1 0 C1.33 5.94 1.66 11.88 2 18 C1.01 18 0.02 18 -1 18 C-1.09945415 11.88909517 -1.0712828 6.02596573 0 0 Z " fill="#24343B" transform="translate(418,489)"/>
<path d="M0 0 C0.33 0.66 0.66 1.32 1 2 C0.22265625 4.1640625 0.22265625 4.1640625 -0.9375 6.625 C-1.31777344 7.44226563 -1.69804687 8.25953125 -2.08984375 9.1015625 C-2.39019531 9.72804688 -2.69054687 10.35453125 -3 11 C-3.99 11 -4.98 11 -6 11 C-5.34 8.03 -4.68 5.06 -4 2 C-3.34 2.33 -2.68 2.66 -2 3 C-1.34 2.01 -0.68 1.02 0 0 Z " fill="#F5DD9C" transform="translate(413,262)"/>
<path d="M0 0 C4.95 0 9.9 0 15 0 C9.72346191 3.51769206 4.13607598 3.10579441 -2 3 C-1.34 2.67 -0.68 2.34 0 2 C0 1.34 0 0.68 0 0 Z " fill="#0A1226" transform="translate(479,217)"/>
<path d="M0 0 C3.69346852 4.9246247 3.56127156 6.1066486 3 12 C2.01 12.99 1.02 13.98 0 15 C0 10.05 0 5.1 0 0 Z " fill="#F0F0F0" transform="translate(817,647)"/>
<path d="M0 0 C0.66 0.33 1.32 0.66 2 1 C2 1.99 2 2.98 2 4 C-4.93 4 -11.86 4 -19 4 C-19 3.67 -19 3.34 -19 3 C-13.06 3 -7.12 3 -1 3 C-0.67 2.01 -0.34 1.02 0 0 Z " fill="#193243" transform="translate(445,708)"/>
<path d="M0 0 C0.66 0 1.32 0 2 0 C1.88544319 1.91731918 1.75793742 3.8338675 1.625 5.75 C1.55539062 6.81734375 1.48578125 7.8846875 1.4140625 8.984375 C1.0271777 11.80206432 0.44313834 13.5830366 -1 16 C-1.02692484 13.70839681 -1.04636124 11.41670454 -1.0625 9.125 C-1.07410156 7.84882813 -1.08570313 6.57265625 -1.09765625 5.2578125 C-1 2 -1 2 0 0 Z " fill="#1778BB" transform="translate(410,456)"/>
<path d="M0 0 C0.66 0 1.32 0 2 0 C1.25 4.75 1.25 4.75 -1 7 C-3.625 7.125 -3.625 7.125 -6 7 C-4.625 5 -4.625 5 -3 3 C-2.34 3 -1.68 3 -1 3 C-0.67 2.01 -0.34 1.02 0 0 Z " fill="#1C2736" transform="translate(561,375)"/>
<path d="M0 0 C3.86457011 3.86457011 4.20932901 10.72886005 5 16 C2.58152006 13.07880232 1.31293234 10.5084932 0.25 6.875 C-0.01296875 6.00617187 -0.2759375 5.13734375 -0.546875 4.2421875 C-1 2 -1 2 0 0 Z " fill="#0A131B" transform="translate(589,677)"/>
<path d="M0 0 C2.50600314 2.50600314 2.97054791 4.18594425 3.09765625 7.69921875 C3.08605469 8.68535156 3.07445312 9.67148437 3.0625 10.6875 C3.05347656 11.68136719 3.04445313 12.67523438 3.03515625 13.69921875 C3.02355469 14.45847656 3.01195312 15.21773438 3 16 C0.30717525 11.96076287 -0.13300939 9.04463848 -0.0625 4.25 C-0.05347656 3.45078125 -0.04445313 2.6515625 -0.03515625 1.828125 C-0.02355469 1.22484375 -0.01195312 0.6215625 0 0 Z " fill="#F5D995" transform="translate(577,272)"/>
<path d="M0 0 C0.33 0 0.66 0 1 0 C0.67 4.29 0.34 8.58 0 13 C-0.66 13 -1.32 13 -2 13 C-2.66 10.36 -3.32 7.72 -4 5 C-3.01 5.495 -3.01 5.495 -2 6 C-1.34 4.02 -0.68 2.04 0 0 Z " fill="#6A4035" transform="translate(397,252)"/>
<path d="M0 0 C2.64 0.33 5.28 0.66 8 1 C8 1.66 8 2.32 8 3 C9.32 3.66 10.64 4.32 12 5 C8.37 4.34 4.74 3.68 1 3 C0.67 2.01 0.34 1.02 0 0 Z " fill="#F0CA8D" transform="translate(554,240)"/>
<path d="M0 0 C3.125 -0.1875 3.125 -0.1875 6 0 C6 0.66 6 1.32 6 2 C8.64 2 11.28 2 14 2 C14 2.33 14 2.66 14 3 C8.72 3 3.44 3 -2 3 C-1.34 2.01 -0.68 1.02 0 0 Z " fill="#1D3447" transform="translate(492,109)"/>
<path d="M0 0 C0.99 0.33 1.98 0.66 3 1 C3 1.66 3 2.32 3 3 C3.99 3.33 4.98 3.66 6 4 C5.67 4.99 5.34 5.98 5 7 C2.9375 7.6875 2.9375 7.6875 1 8 C0.67 5.36 0.34 2.72 0 0 Z " fill="#D38951" transform="translate(457,413)"/>
<path d="M0 0 C0.99 0 1.98 0 3 0 C3.05422947 1.4370809 3.09289723 2.87475462 3.125 4.3125 C3.14820313 5.11300781 3.17140625 5.91351563 3.1953125 6.73828125 C3 9 3 9 1 12 C0.67 8.04 0.34 4.08 0 0 Z " fill="#E3AB33" transform="translate(420,493)"/>
<path d="M0 0 C1 2 2 4 3 6 C3.66 6.33 4.32 6.66 5 7 C3.625 9 3.625 9 2 11 C1.34 11 0.68 11 0 11 C0 7.37 0 3.74 0 0 Z " fill="#F4D928" transform="translate(633,479)"/>
<path d="M0 0 C0.99 0 1.98 0 3 0 C3 1.65 3 3.3 3 5 C2.34 5 1.68 5 1 5 C1 6.65 1 8.3 1 10 C0.34 10 -0.32 10 -1 10 C-0.67 6.7 -0.34 3.4 0 0 Z " fill="#21263C" transform="translate(371,460)"/>
<path d="M0 0 C2.0625 1.75 2.0625 1.75 4 4 C3.75 6.25 3.75 6.25 3 8 C2.67 7.67 2.34 7.34 2 7 C1.34 7.66 0.68 8.32 0 9 C0 6.03 0 3.06 0 0 Z " fill="#F0DA28" transform="translate(566,433)"/>
<path d="M0 0 C1.32 0.33 2.64 0.66 4 1 C2.35 2.98 0.7 4.96 -1 7 C-1.99 6.67 -2.98 6.34 -4 6 C-2.68 4.02 -1.36 2.04 0 0 Z " fill="#0F1E2C" transform="translate(326,222)"/>
<path d="M0 0 C1.32 0 2.64 0 4 0 C3.25 1.9375 3.25 1.9375 2 4 C0.125 4.6875 0.125 4.6875 -2 5 C-3.11375 5.2784375 -3.11375 5.2784375 -4.25 5.5625 C-4.8275 5.706875 -5.405 5.85125 -6 6 C-4 4 -2 2 0 0 Z " fill="#23303D" transform="translate(348,457)"/>
<path d="M0 0 C4.3177458 0.50797009 8.03302114 1.19682779 12 3 C8.45026831 4.1832439 6.60040463 3.90010116 3 3 C1.125 1.4375 1.125 1.4375 0 0 Z " fill="#EDC689" transform="translate(472,401)"/>
<path d="M0 0 C3 3 3 3 3.1875 6.6875 C3.125625 7.780625 3.06375 8.87375 3 10 C2.34 10 1.68 10 1 10 C0.67 10.66 0.34 11.32 0 12 C0 8.04 0 4.08 0 0 Z " fill="#1E3142" transform="translate(300,351)"/>
<path d="M0 0 C1.98830031 3.97660063 3.40039964 6.88360191 2.5625 11.3125 C2.376875 11.869375 2.19125 12.42625 2 13 C1.34 13 0.68 13 0 13 C0 8.71 0 4.42 0 0 Z " fill="#182D3F" transform="translate(410,285)"/>
<path d="M0 0 C0.33 0.99 0.66 1.98 1 3 C1.66 3 2.32 3 3 3 C3 6.63 3 10.26 3 14 C-0.16470185 9.25294723 -0.10927475 5.68228705 0 0 Z " fill="#060C15" transform="translate(372,225)"/>
<path d="M0 0 C5.75 0.75 5.75 0.75 8 3 C6.35 2.67 4.7 2.34 3 2 C3.350625 2.598125 3.70125 3.19625 4.0625 3.8125 C5 6 5 6 4 9 C0 2.25 0 2.25 0 0 Z " fill="#04213D" transform="translate(405,198)"/>
<path d="M0 0 C2.97 0 5.94 0 9 0 C9.33 0.66 9.66 1.32 10 2 C6.52674819 3.1577506 3.63932552 3.06866652 0 3 C0 2.01 0 1.02 0 0 Z " fill="#273847" transform="translate(482,552)"/>
<path d="M0 0 C0.99 0.33 1.98 0.66 3 1 C3 3.97 3 6.94 3 10 C2.01 9.67 1.02 9.34 0 9 C0 6.03 0 3.06 0 0 Z " fill="#223543" transform="translate(446,399)"/>
<path d="M0 0 C0.66 0.33 1.32 0.66 2 1 C0.70519111 3.42776667 -0.35838519 4.76967674 -2.98046875 5.7109375 C-4.9738726 6.19782198 -6.98658625 6.60391861 -9 7 C-6.3765992 4.08511023 -3.28183606 2.11496102 0 0 Z " fill="#F4D997" transform="translate(476,317)"/>
<path d="M0 0 C0.66 0.33 1.32 0.66 2 1 C-0.31 2.65 -2.62 4.3 -5 6 C-7 5 -7 5 -9 2 C-7.6078125 2.061875 -7.6078125 2.061875 -6.1875 2.125 C-2.84190281 2.27136339 -2.84190281 2.27136339 0 0 Z " fill="#0B1528" transform="translate(536,254)"/>
<path d="M0 0 C0.66 0.33 1.32 0.66 2 1 C2.20140476 4.62528568 1.85776765 6.86501708 0 10 C-0.66 10 -1.32 10 -2 10 C-1.34 6.7 -0.68 3.4 0 0 Z " fill="#EFF0F0" transform="translate(904,672)"/>
<path d="M0 0 C0.66 1.32 1.32 2.64 2 4 C1.01 4.99 0.02 5.98 -1 7 C-1.33 6.34 -1.66 5.68 -2 5 C-2.66 4.67 -3.32 4.34 -4 4 C-2.68 2.68 -1.36 1.36 0 0 Z " fill="#1F273E" transform="translate(641,482)"/>
<path d="M0 0 C0.66 0.99 1.32 1.98 2 3 C-0.31 4.98 -2.62 6.96 -5 9 C-3.90931332 5.22454612 -3.0916909 2.52956528 0 0 Z " fill="#EDCC8E" transform="translate(421,250)"/>
<path d="M0 0 C0.33 0 0.66 0 1 0 C1.66 3.63 2.32 7.26 3 11 C2.01 11 1.02 11 0 11 C-1.125 3.375 -1.125 3.375 0 0 Z " fill="#E7E8E9" transform="translate(871,692)"/>
<path d="M0 0 C0.66 0 1.32 0 2 0 C2.66 2.97 3.32 5.94 4 9 C3.01 9 2.02 9 1 9 C0.67 6.03 0.34 3.06 0 0 Z " fill="#E1E4E5" transform="translate(218,639)"/>
<path d="M0 0 C0.66 0.33 1.32 0.66 2 1 C2 3.64 2 6.28 2 9 C1.01 8.67 0.02 8.34 -1 8 C-0.67 5.36 -0.34 2.72 0 0 Z " fill="#D6BE27" transform="translate(367,481)"/>
<path d="M0 0 C0.33 0 0.66 0 1 0 C1.33 2.64 1.66 5.28 2 8 C0.35 7.67 -1.3 7.34 -3 7 C-2.01 4.69 -1.02 2.38 0 0 Z " fill="#EBB17A" transform="translate(589,300)"/>
<path d="M0 0 C0.66 0.33 1.32 0.66 2 1 C0.02579865 3.52259061 -0.96745642 3.9929808 -4.1875 4.6875 C-5.5796875 4.8421875 -5.5796875 4.8421875 -7 5 C-7 4.34 -7 3.68 -7 3 C-4.69631264 1.93347808 -2.35981813 0.93578995 0 0 Z M-3 4 C-1 5 -1 5 -1 5 Z " fill="#07111C" transform="translate(442,123)"/>
<path d="M0 0 C2.475 0.495 2.475 0.495 5 1 C5.33 1.99 5.66 2.98 6 4 C5.34 4.66 4.68 5.32 4 6 C2.62437146 4.71034824 1.29233607 3.37310707 0 2 C0 1.34 0 0.68 0 0 Z " fill="#F1F1F1" transform="translate(440,408)"/>
<path d="M0 0 C2.29633824 3.44450737 2.54016485 5.93812283 3 10 C2.01 10 1.02 10 0 10 C0 6.7 0 3.4 0 0 Z " fill="#09111A" transform="translate(506,660)"/>
<path d="M0 0 C2.9719385 1.12451727 5.33440687 2.22293791 8 4 C7.67 4.66 7.34 5.32 7 6 C4.0625 4.6875 4.0625 4.6875 1 3 C0.67 2.01 0.34 1.02 0 0 Z " fill="#0A141F" transform="translate(436,409)"/>
<path d="M0 0 C2 2 2 2 2.3125 4.5 C2.209375 5.325 2.10625 6.15 2 7 C1.01 7.66 0.02 8.32 -1 9 C-1.09765625 2.84765625 -1.09765625 2.84765625 -1 1 C-0.67 0.67 -0.34 0.34 0 0 Z " fill="#213445" transform="translate(301,323)"/>
</svg>
